<?xml version="1.0" encoding="utf-8"?>
<!-- Generator: Adobe Illustrator 16.0.0, SVG Export Plug-In . SVG Version: 6.00 Build 0)  -->
<!DOCTYPE svg PUBLIC "-//W3C//DTD SVG 1.1//EN" "http://www.w3.org/Graphics/SVG/1.1/DTD/svg11.dtd">
<svg version="1.1" id="Layer_1" xmlns="http://www.w3.org/2000/svg" xmlns:xlink="http://www.w3.org/1999/xlink" x="0px" y="0px"
	 width="500px" height="500px" viewBox="0 0 500 500" enable-background="new 0 0 500 500" xml:space="preserve">
<rect x="238.229" y="70.142" transform="matrix(0.7071 0.7071 -0.7071 0.7071 131.3844 -152.8859)" fill="#4E97A1" width="24.003" height="24.002"/>
<rect x="263.232" y="95.143" transform="matrix(0.7071 0.7071 -0.7071 0.7071 156.3727 -163.2358)" fill="#FFCC82" width="24.003" height="24.003"/>
<rect x="287.234" y="118.146" transform="matrix(0.7071 0.7071 -0.7071 0.7071 179.6637 -173.4693)" fill="#4E97A1" width="24.004" height="24.003"/>
<rect x="309.236" y="140.149" transform="matrix(0.7071 0.7071 -0.7071 0.7071 201.6889 -182.5905)" fill="#FFCC82" width="24.003" height="24.002"/>
<rect x="333.239" y="163.15" transform="matrix(0.7071 0.7071 -0.7071 0.7071 224.9639 -192.8193)" fill="#4E97A1" width="24.003" height="24.003"/>
<rect x="356.242" y="186.153" transform="matrix(0.7071 0.7071 -0.7071 0.7071 247.972 -202.3492)" fill="#FFCC82" width="24.003" height="24.003"/>
<rect x="380.244" y="209.156" transform="matrix(0.7071 0.7071 -0.7071 0.7071 271.2855 -212.5885)" fill="#4E97A1" width="24.001" height="24.001"/>
<rect x="402.247" y="231.157" transform="matrix(0.7071 0.7071 -0.7071 0.7071 293.2761 -221.6999)" fill="#FFCC82" width="24.002" height="24.002"/>
<rect x="213.575" y="94.796" transform="matrix(0.7071 0.7071 -0.7071 0.7071 141.5899 -128.2272)" fill="#FFCC82" width="24.002" height="24.002"/>
<rect x="238.577" y="119.798" transform="matrix(0.7071 0.7071 -0.7071 0.7071 166.5811 -138.58)" fill="#4E97A1" width="24.002" height="24.003"/>
<rect x="262.58" y="142.8" transform="matrix(0.7071 0.7071 -0.7071 0.7071 189.8799 -148.8165)" fill="#FFCC82" width="24.003" height="24.003"/>
<rect x="284.582" y="164.803" transform="matrix(0.7071 0.7071 -0.7071 0.7071 211.8912 -157.9324)" fill="#4E97A1" width="24.002" height="24.002"/>
<rect x="308.583" y="187.806" transform="matrix(0.7071 0.7071 -0.7071 0.7071 235.1924 -168.1682)" fill="#FFCC82" width="24.004" height="24.002"/>
<rect x="331.587" y="210.806" transform="matrix(0.7071 0.7071 -0.7071 0.7071 258.1779 -177.6931)" fill="#4E97A1" width="24.001" height="24.003"/>
<rect x="355.589" y="233.81" transform="matrix(0.7071 0.7071 -0.7071 0.7071 281.4799 -187.9294)" fill="#FFCC82" width="24.003" height="24.003"/>
<rect x="377.593" y="255.812" transform="matrix(0.7071 0.7071 -0.7071 0.7071 303.4687 -197.0411)" fill="#4E97A1" width="24.002" height="24.004"/>
<rect x="189.833" y="118.538" transform="matrix(0.7071 0.7071 -0.7071 0.7071 151.4274 -104.4857)" fill="#4E97A1" width="24.002" height="24.002"/>
<rect x="214.836" y="143.54" transform="matrix(0.7071 0.7071 -0.7071 0.7071 176.4156 -114.8398)" fill="#FFCC82" width="24.004" height="24.003"/>
<rect x="238.838" y="166.542" transform="matrix(0.7071 0.7071 -0.7071 0.7071 199.7098 -125.0749)" fill="#4E97A1" width="24.003" height="24.003"/>
<rect x="260.84" y="188.544" transform="matrix(0.7071 0.7071 -0.7071 0.7071 221.73 -134.1906)" fill="#FFCC82" width="24.002" height="24.003"/>
<rect x="284.842" y="211.547" transform="matrix(0.7071 0.7071 -0.7071 0.7071 245.0266 -144.4259)" fill="#4E97A1" width="24.004" height="24.002"/>
<rect x="307.846" y="234.549" transform="matrix(0.7071 0.7071 -0.7071 0.7071 268.03 -153.9543)" fill="#FFCC82" width="24.002" height="24.003"/>
<rect x="331.846" y="257.553" transform="matrix(0.707 0.7072 -0.7072 0.707 291.3635 -164.1927)" fill="#4E97A1" width="24.003" height="24.001"/>
<rect x="353.85" y="279.554" transform="matrix(0.7071 0.7071 -0.7071 0.7071 313.3291 -173.3032)" fill="#FFCC82" width="24.002" height="24.002"/>
<rect x="166.091" y="142.279" transform="matrix(0.7071 0.7071 -0.7071 0.7071 161.258 -80.7429)" fill="#FFCC82" width="24.003" height="24.002"/>
<rect x="191.094" y="167.281" transform="matrix(0.7071 0.7071 -0.7071 0.7071 186.2496 -91.0992)" fill="#4E97A1" width="24.003" height="24.004"/>
<rect x="215.096" y="190.284" transform="matrix(0.7071 0.7071 -0.7071 0.7071 209.5568 -101.3343)" fill="#FFCC82" width="24.003" height="24.002"/>
<rect x="237.098" y="212.287" transform="matrix(0.7071 0.7071 -0.7071 0.7071 231.5695 -110.4484)" fill="#4E97A1" width="24.003" height="24.002"/>
<rect x="261.1" y="235.289" transform="matrix(0.7071 0.7071 -0.7071 0.7071 254.8711 -120.6835)" fill="#FFCC82" width="24.003" height="24.002"/>
<rect x="284.104" y="258.291" transform="matrix(0.7071 0.7071 -0.7071 0.7071 277.8638 -130.2113)" fill="#4E97A1" width="24.001" height="24.002"/>
<rect x="308.104" y="281.293" transform="matrix(0.707 0.7072 -0.7072 0.707 301.1843 -140.4466)" fill="#FFCC82" width="24.002" height="24.001"/>
<rect x="330.109" y="303.295" transform="matrix(0.7071 0.7071 -0.7071 0.7071 323.1497 -149.5597)" fill="#4E97A1" width="24.002" height="24.002"/>
<rect x="142.35" y="166.021" transform="matrix(0.7071 0.7071 -0.7071 0.7071 171.0923 -57.001)" fill="#4E97A1" width="24.003" height="24.003"/>
<rect x="167.352" y="191.022" transform="matrix(0.7071 0.7071 -0.7071 0.7071 196.0836 -67.3585)" fill="#FFCC82" width="24.004" height="24.004"/>
<rect x="191.355" y="214.026" transform="matrix(0.7071 0.7071 -0.7071 0.7071 219.3823 -77.5929)" fill="#4E97A1" width="24.003" height="24.003"/>
<rect x="213.357" y="236.028" transform="matrix(0.7071 0.7071 -0.7071 0.7071 241.3893 -86.7067)" fill="#FFCC82" width="24.003" height="24.003"/>
<rect x="237.359" y="259.032" transform="matrix(0.7071 0.7071 -0.7071 0.7071 264.69 -96.9407)" fill="#4E97A1" width="24.003" height="24.001"/>
<rect x="260.362" y="282.032" transform="matrix(0.7071 0.7071 -0.7071 0.7071 287.6859 -106.4689)" fill="#FFCC82" width="24" height="24.003"/>
<rect x="284.364" y="305.034" transform="matrix(0.7071 0.7071 -0.7071 0.7071 310.9689 -116.7047)" fill="#4E97A1" width="24.002" height="24.003"/>
<rect x="306.367" y="327.036" transform="matrix(0.7071 0.7071 -0.7071 0.7071 332.9572 -125.8192)" fill="#FFCC82" width="24.003" height="24.004"/>
<rect x="119.521" y="188.85" transform="matrix(0.7071 0.7071 -0.7071 0.7071 180.5482 -34.1719)" fill="#FFCC82" width="24.003" height="24.002"/>
<rect x="144.524" y="213.851" transform="matrix(0.7071 0.7071 -0.7071 0.7071 205.5354 -44.5316)" fill="#4E97A1" width="24.003" height="24.004"/>
<rect x="168.526" y="236.854" transform="matrix(0.7071 0.7071 -0.7071 0.7071 228.8509 -54.7625)" fill="#FFCC82" width="24.002" height="24.002"/>
<rect x="190.529" y="258.856" transform="matrix(0.7071 0.7071 -0.7071 0.7071 250.8547 -63.8763)" fill="#4E97A1" width="24.002" height="24.003"/>
<rect x="214.531" y="281.859" transform="matrix(0.7071 0.7071 -0.7071 0.7071 274.1559 -74.1108)" fill="#FFCC82" width="24.003" height="24.001"/>
<rect x="237.534" y="304.86" transform="matrix(0.7071 0.7071 -0.7071 0.7071 297.1357 -83.642)" fill="#4E97A1" width="24.001" height="24.003"/>
<rect x="261.536" y="327.863" transform="matrix(0.7071 0.7071 -0.7071 0.7071 320.4375 -93.876)" fill="#FFCC82" width="24.003" height="24.002"/>
<rect x="283.537" y="349.864" transform="matrix(0.7071 0.7071 -0.7071 0.7071 342.4528 -102.9882)" fill="#4E97A1" width="24.004" height="24.004"/>
<rect x="95.78" y="212.591" transform="matrix(0.7071 0.7071 -0.7071 0.7071 190.3755 -10.4326)" fill="#4E97A1" width="24.003" height="24.003"/>
<rect x="120.782" y="237.592" transform="matrix(0.7071 0.7071 -0.7071 0.7071 215.3736 -20.7901)" fill="#FFCC82" width="24.004" height="24.004"/>
<rect x="144.785" y="260.596" transform="matrix(0.7071 0.7071 -0.7071 0.7071 238.6677 -31.0248)" fill="#4E97A1" width="24.002" height="24.002"/>
<rect x="166.787" y="282.596" transform="matrix(0.7071 0.7071 -0.7071 0.7071 260.669 -40.139)" fill="#FFCC82" width="24.002" height="24.005"/>
<rect x="190.789" y="305.6" transform="matrix(0.7071 0.7071 -0.7071 0.7071 283.9795 -50.3701)" fill="#4E97A1" width="24.003" height="24.003"/>
<rect x="213.792" y="328.603" transform="matrix(0.7071 0.7071 -0.7071 0.7071 306.9934 -59.8954)" fill="#FFCC82" width="24.002" height="24.002"/>
<rect x="237.794" y="351.606" transform="matrix(0.7071 0.7071 -0.7071 0.7071 330.2777 -70.1328)" fill="#4E97A1" width="24.001" height="24.001"/>
<rect x="259.796" y="373.606" transform="matrix(0.7071 0.7071 -0.7071 0.7071 352.2731 -79.2476)" fill="#FFCC82" width="24.002" height="24.003"/>
<rect x="73.864" y="234.507" transform="matrix(0.7071 0.7071 -0.7071 0.7071 199.4631 11.4877)" fill="#FFCC82" width="24.002" height="24.002"/>
<rect x="98.867" y="259.508" transform="matrix(0.7071 0.7071 -0.7071 0.7071 224.4437 1.1213)" fill="#4E97A1" width="24.003" height="24.004"/>
<rect x="122.869" y="282.512" transform="matrix(0.7071 0.7071 -0.7071 0.7071 247.759 -9.1055)" fill="#FFCC82" width="24.003" height="24.001"/>
<rect x="144.872" y="304.513" transform="matrix(0.7071 0.7071 -0.7071 0.7071 269.7424 -18.2262)" fill="#4E97A1" width="24.003" height="24.004"/>
<rect x="168.874" y="327.516" transform="matrix(0.7071 0.7071 -0.7071 0.7071 293.063 -28.4527)" fill="#FFCC82" width="24.004" height="24.002"/>
<rect x="191.876" y="350.517" transform="matrix(0.7071 0.7071 -0.7071 0.7071 316.0593 -37.982)" fill="#4E97A1" width="24.001" height="24.003"/>
<rect x="215.878" y="373.521" transform="matrix(0.7071 0.7071 -0.7071 0.7071 339.3679 -48.2136)" fill="#FFCC82" width="24.002" height="24.001"/>
<rect x="237.881" y="395.522" transform="matrix(0.7071 0.7071 -0.7071 0.7071 361.3518 -57.3325)" fill="#4E97A1" width="24.003" height="24.004"/>
<rect x="68.13" y="175.029" transform="matrix(0.7075 -0.7067 0.7067 0.7075 -103.9644 117.8639)" fill="#026A79" width="44.553" height="18.999"/>
<rect x="159.01" y="86.645" transform="matrix(0.7075 -0.7067 0.7067 0.7075 -15.3726 155.1467)" fill="#026A79" width="41.469" height="18.999"/>
<rect x="122.786" y="129.004" transform="matrix(0.7075 -0.7067 0.7067 0.7075 -58.2789 136.1918)" fill="#026A79" width="25.219" height="18.999"/>
<polygon fill="#026A79" points="286.748,44.715 251.695,9.622 238.253,23.05 238.342,23.139 214.761,46.693 228.188,60.135 
	251.77,36.581 273.307,58.142 "/>
<polygon fill="#026A79" points="214.761,448.042 249.813,483.135 263.255,469.707 263.167,469.618 286.748,446.063 273.321,432.622 
	249.739,456.176 228.202,434.614 "/>
<polygon fill="#026A79" points="452.418,281.372 487.511,246.319 474.083,232.878 473.994,232.966 450.439,209.385 436.998,222.812 
	460.552,246.394 438.99,267.931 "/>
<polygon fill="#026A79" points="49.091,212.385 13.998,247.438 27.426,260.879 27.515,260.791 51.069,284.372 64.511,270.945 
	40.957,247.363 62.519,225.826 "/>
<rect x="292.466" y="391.787" transform="matrix(0.7075 -0.7067 0.7067 0.7075 -190.3898 342.5617)" fill="#026A79" width="52.358" height="18.999"/>
<rect x="389.94" y="300.476" transform="matrix(0.7075 -0.7067 0.7067 0.7075 -98.8735 381.0483)" fill="#026A79" width="41.95" height="18.999"/>
<rect x="348.396" y="344.645" transform="matrix(0.7075 -0.7067 0.7067 0.7075 -143.2947 362.053)" fill="#026A79" width="34.724" height="18.999"/>
<rect x="68.021" y="301.548" transform="matrix(0.7067 0.7075 -0.7075 0.7067 246.9038 26.4933)" fill="#026A79" width="46.952" height="18.999"/>
<rect x="162.27" y="396.98" transform="matrix(0.7067 0.7075 -0.7075 0.7067 342.4236 -13.0633)" fill="#026A79" width="49.396" height="18.999"/>
<rect x="124.827" y="349.597" transform="matrix(0.7067 0.7075 -0.7075 0.7067 295.0109 6.575)" fill="#026A79" width="29.497" height="18.999"/>
<rect x="292.423" y="75.958" transform="matrix(0.7067 0.7075 -0.7075 0.7067 152.5315 -197.0285)" fill="#026A79" width="42.966" height="18.999"/>
<rect x="390.863" y="175.339" transform="matrix(0.7067 0.7075 -0.7075 0.7067 252.003 -238.2172)" fill="#026A79" width="44.915" height="18.999"/>
<rect x="351.5" y="124.949" transform="matrix(0.7067 0.7075 -0.7075 0.7067 201.5801 -217.3452)" fill="#026A79" width="22.85" height="18.999"/>
</svg>
