<?xml version="1.0" encoding="UTF-8" standalone="no"?>
<!-- Generator: Adobe Illustrator 16.0.0, SVG Export Plug-In . SVG Version: 6.00 Build 0)  -->

<svg
   version="1.1"
   id="Layer_1"
   x="0px"
   y="0px"
   width="50px"
   height="50px"
   viewBox="0 0 50 50"
   enable-background="new 0 0 50 50"
   xml:space="preserve"
   sodipodi:docname="logoInstagram.svg"
   inkscape:version="1.1.1 (3bf5ae0d25, 2021-09-20)"
   xmlns:inkscape="http://www.inkscape.org/namespaces/inkscape"
   xmlns:sodipodi="http://sodipodi.sourceforge.net/DTD/sodipodi-0.dtd"
   xmlns="http://www.w3.org/2000/svg"
   xmlns:svg="http://www.w3.org/2000/svg"><defs
   id="defs11" /><sodipodi:namedview
   id="namedview9"
   pagecolor="#ffffff"
   bordercolor="#666666"
   borderopacity="1.0"
   inkscape:pageshadow="2"
   inkscape:pageopacity="0.0"
   inkscape:pagecheckerboard="0"
   showgrid="false"
   inkscape:zoom="16.64"
   inkscape:cx="25"
   inkscape:cy="24.969952"
   inkscape:window-width="1920"
   inkscape:window-height="1017"
   inkscape:window-x="-8"
   inkscape:window-y="-8"
   inkscape:window-maximized="1"
   inkscape:current-layer="layer1_2_" />
<g
   id="layer1"
   inkscape:label="Capa 1"
   inkscape:groupmode="layer"
   display="none">
	<path
   id="path1100"
   display="inline"
   fill="#FFB775"
   d="M23.004,0.795c-4.511,0.592-8.559,1.895-12.3,4.569   C8.307,7.077,6.297,9.295,4.67,11.74c-1.513,2.274-2.593,4.821-3.248,7.468c-3.085,12.504,4.508,25.677,16.924,29.22   c3.154,0.899,6.673,1.13,9.928,0.715c3.433-0.438,6.724-1.667,9.664-3.473c2.452-1.506,4.667-3.522,6.402-5.815   c7.852-10.37,6.19-25.706-4.118-33.855c-2.557-2.021-5.479-3.507-8.609-4.4C28.929,0.833,25.791,0.429,23.004,0.795 M41.63,11.3   c-0.387,1.626-1.608,2.73-2.812,3.778l3.689-0.966c-0.27,1.04-1.493,2.107-2.284,2.785c-0.341,0.293-0.912,0.574-1.089,1.008   c-0.155,0.38-0.029,0.898-0.068,1.303c-0.106,1.121-0.174,2.223-0.36,3.338c-0.404,2.415-1.402,4.846-2.651,6.941   c-5.936,9.956-18.802,12.405-28.515,6.678v-0.088c0.752-0.163,1.68,0.017,2.461-0.001c0.892-0.022,1.856-0.231,2.723-0.442   c1.947-0.474,3.432-1.588,5.184-2.457V33.09c-2.608-0.623-6.17-1.854-6.502-5.096h2.812c-0.58-0.562-1.603-0.703-2.284-1.181   c-1.794-1.26-3.465-3.81-3.075-6.112l2.987,0.879c-0.672-0.832-1.486-1.417-2.042-2.372c-1.264-2.169-1.24-5.042,0.022-7.205   c1.333,0.947,2.368,2.393,3.69,3.407c3.061,2.347,7.258,4.062,11.158,4.062c-0.098-1.237-0.203-2.483,0.172-3.689   c1.065-3.423,4.461-5.573,7.999-5.071c1.032,0.146,2.021,0.509,2.899,1.067c0.438,0.279,0.976,0.994,1.493,1.049   C38.792,12.995,40.178,11.45,41.63,11.3L41.63,11.3z" />
</g>
<g
   id="layer1_1_"
   inkscape:label="Capa 1"
   inkscape:groupmode="layer">
	<path
   id="path1299"
   fill="#FFB775"
   d="M22.982,0.523c-4.563,0.6-8.655,1.917-12.439,4.621c-2.424,1.731-4.455,3.976-6.101,6.447   c-1.529,2.299-2.622,4.875-3.284,7.551c-3.12,12.644,4.559,25.964,17.114,29.546c3.188,0.911,6.748,1.144,10.039,0.725   c3.471-0.443,6.8-1.688,9.774-3.513c2.478-1.522,4.716-3.562,6.472-5.881c7.941-10.486,6.26-25.993-4.165-34.232   c-2.584-2.045-5.538-3.546-8.706-4.45C28.972,0.563,25.799,0.153,22.982,0.523 M19.249,10.195c1.818-0.215,3.767-0.025,5.597-0.025   c4.545,0,10.431-0.826,13.412,3.465c1.843,2.649,1.603,6.083,1.603,9.149c0,5.397,1.33,13.292-4.618,16.101   c-0.809,0.381-1.693,0.63-2.578,0.754c-2.022,0.287-4.091,0.203-6.13,0.203c-4.526,0-10.976,1.062-14.264-2.841   c-2.46-2.921-2.082-6.919-2.082-10.486c0-5.165-1.191-12.688,4.53-15.378C16.182,10.45,17.682,10.379,19.249,10.195 M19.871,12.873   c-2.181,0.287-4.198,0.202-5.732,2.095c-1.09,1.342-1.059,3.004-1.212,4.62c-0.337,3.537-0.235,7.385,0.007,10.928   c0.114,1.672,0.183,3.376,1.357,4.708c1.467,1.668,3.447,1.734,5.492,1.874c4.02,0.275,8.535,0.456,12.528-0.135   c0.616-0.092,1.201-0.253,1.776-0.496c2.621-1.109,2.859-3.769,3.029-6.219c0.193-2.855,0.079-5.752,0.079-8.618   c0-2.103,0.114-4.685-1.158-6.484c-1.283-1.816-3.36-2.135-5.414-2.225c-2.22-0.097-4.441-0.084-6.665-0.084   C22.621,12.835,21.199,12.698,19.871,12.873 M32.486,15.356c2.258-0.491,3.146,2.951,0.888,3.474   C31.115,19.352,30.234,15.848,32.486,15.356 M24.225,17.391c0.906-0.111,1.874-0.015,2.754,0.218   c6.239,1.649,7.665,10.155,2.31,13.747c-1.068,0.715-2.283,1.114-3.554,1.265c-0.885,0.105-1.81-0.005-2.667-0.229   c-6.265-1.652-7.709-10.28-2.22-13.808C21.866,17.928,23.028,17.539,24.225,17.391 M24.67,20.068   c-0.928,0.125-1.808,0.365-2.578,0.922c-4.26,3.081-1.159,9.616,3.819,8.876c5.096-0.759,5.289-8.166,0.532-9.593   C25.888,20.106,25.249,19.991,24.67,20.068z" />
</g>
<g
   id="layer1_2_"
   inkscape:label="Capa 1"
   inkscape:groupmode="layer"
   display="none">
	<path
   id="path835"
   display="inline"
   fill="#FFB775"
   d="M22.954,0.192C18.331,0.8,14.183,2.134,10.348,4.875   C7.89,6.63,5.832,8.904,4.164,11.409c-1.55,2.331-2.658,4.941-3.328,7.655C-2.327,31.881,5.457,45.379,18.181,49.01   c3.232,0.924,6.839,1.16,10.176,0.732c3.518-0.447,6.889-1.707,9.903-3.559c2.514-1.543,4.783-3.609,6.563-5.959   c8.047-10.629,6.344-26.345-4.222-34.697c-2.619-2.073-5.612-3.595-8.823-4.51C29.025,0.231,25.811-0.183,22.954,0.192    M31.53,8.396c0.571,4.426,3.287,7.262,7.714,7.821v5.325c-2.974,0-4.947-1.028-7.605-2.173c0,3.883,0.253,7.871-0.126,11.735   c-0.19,1.916-0.875,3.934-1.938,5.538c-0.905,1.367-2.08,2.533-3.478,3.392c-1.162,0.712-2.548,1.229-3.91,1.386   c-1.52,0.172-2.99,0.07-4.454-0.403C9.219,38.26,8.662,25.733,16.32,21.721c1.818-0.953,4.028-1.477,6.083-1.482v4.128   c0,0.384,0.142,1.133-0.173,1.418c-0.418,0.381-1.362,0.378-1.891,0.541c-1.828,0.567-3.878,1.671-4.11,3.799   c-0.472,4.336,4.668,7.774,8.12,4.531c0.5-0.469,0.841-1.079,1.11-1.706c1.086-2.536,0.637-5.672,0.637-8.366V8.396H31.53z" />
</g>
</svg>
