<?xml version="1.0" encoding="utf-8"?>
<!-- Generator: Adobe Illustrator 16.0.0, SVG Export Plug-In . SVG Version: 6.00 Build 0)  -->
<!DOCTYPE svg PUBLIC "-//W3C//DTD SVG 1.1//EN" "http://www.w3.org/Graphics/SVG/1.1/DTD/svg11.dtd">
<svg version="1.1" id="Layer_1" xmlns="http://www.w3.org/2000/svg" xmlns:xlink="http://www.w3.org/1999/xlink" x="0px" y="0px"
	 width="150px" height="150px" viewBox="0 0 150 150" enable-background="new 0 0 150 150" xml:space="preserve">
<g display="none">
	<path display="inline" fill="#0391A5" d="M128.478,59.5c0,5.922-5.093,10.5-11.373,10.5H32.623c-6.281,0-11.373-4.578-11.373-10.5
		l0,0c0-5.922,5.092-10.5,11.373-10.5h84.481C123.385,49,128.478,53.578,128.478,59.5L128.478,59.5z"/>
	<path display="inline" fill="#0391A5" d="M128.478,88.5c0,5.922-5.093,10.5-11.373,10.5H32.623c-6.281,0-11.373-4.578-11.373-10.5
		l0,0c0-5.922,5.092-10.5,11.373-10.5h84.481C123.385,78,128.478,82.578,128.478,88.5L128.478,88.5z"/>
	<path display="inline" fill="#0391A5" d="M128.478,119.5c0,5.922-5.093,10.5-11.373,10.5H32.623c-6.281,0-11.373-4.578-11.373-10.5
		l0,0c0-5.922,5.092-10.5,11.373-10.5h84.481C123.385,109,128.478,113.578,128.478,119.5L128.478,119.5z"/>
	<polygon display="inline" fill="#0391A5" points="63.886,40.3 35.292,23.45 59.035,17.833 	"/>
	<polygon display="inline" fill="#0391A5" points="83.544,40.3 112.393,22.939 88.14,17.833 	"/>
</g>
<g>
	<g>
		<path fill="#FFB775" d="M128.478,59.5c0,5.922-5.093,10.5-11.373,10.5H32.623c-6.281,0-11.373-4.578-11.373-10.5l0,0
			c0-5.922,5.092-10.5,11.373-10.5h84.481C123.385,49,128.478,53.578,128.478,59.5L128.478,59.5z"/>
		<path fill="#FFB775" d="M128.478,88.5c0,5.922-5.093,10.5-11.373,10.5H32.623c-6.281,0-11.373-4.578-11.373-10.5l0,0
			c0-5.922,5.092-10.5,11.373-10.5h84.481C123.385,78,128.478,82.578,128.478,88.5L128.478,88.5z"/>
		<path fill="#FFB775" d="M128.478,119.5c0,5.922-5.093,10.5-11.373,10.5H32.623c-6.281,0-11.373-4.578-11.373-10.5l0,0
			c0-5.922,5.092-10.5,11.373-10.5h84.481C123.385,109,128.478,113.578,128.478,119.5L128.478,119.5z"/>
		<polygon fill="#FFB775" points="63.886,40.3 35.292,23.45 59.035,17.833 		"/>
		<polygon fill="#FFB775" points="83.544,40.3 112.393,22.939 88.14,17.833 		"/>
	</g>
</g>
</svg>
