<?xml version="1.0" encoding="UTF-8" standalone="no"?>
<!-- Created with Inkscape (http://www.inkscape.org/) -->

<svg
   width="82.485153mm"
   height="88.249825mm"
   viewBox="0 0 82.485153 88.249822"
   version="1.1"
   id="svg5"
   inkscape:version="1.1.1 (3bf5ae0d25, 2021-09-20)"
   sodipodi:docname="accesibilidad.svg"
   xmlns:inkscape="http://www.inkscape.org/namespaces/inkscape"
   xmlns:sodipodi="http://sodipodi.sourceforge.net/DTD/sodipodi-0.dtd"
   xmlns="http://www.w3.org/2000/svg"
   xmlns:svg="http://www.w3.org/2000/svg">
  <sodipodi:namedview
     id="namedview7"
     pagecolor="#ffffff"
     bordercolor="#666666"
     borderopacity="1.0"
     inkscape:pageshadow="2"
     inkscape:pageopacity="0.0"
     inkscape:pagecheckerboard="0"
     inkscape:document-units="mm"
     showgrid="false"
     inkscape:zoom="1.4823793"
     inkscape:cx="105.91081"
     inkscape:cy="181.80232"
     inkscape:window-width="1920"
     inkscape:window-height="1017"
     inkscape:window-x="-8"
     inkscape:window-y="-8"
     inkscape:window-maximized="1"
     inkscape:current-layer="layer1" />
  <defs
     id="defs2" />
  <g
     inkscape:label="Capa 1"
     inkscape:groupmode="layer"
     id="layer1"
     transform="translate(-66.297923,-5.9458067)">
    <g
       transform="matrix(0.00793304,0,0,-0.00827534,66.287704,111.87176)"
       fill="#2196f3"
       stroke="none"
       id="g832"
       style="fill:#f8f9fa;fill-opacity:1">
      <path
         d="m 4205,12793 c -472,-56 -854,-285 -1079,-646 -169,-270 -217,-611 -130,-914 34,-121 120,-291 198,-395 76,-100 201,-219 294,-281 l 64,-42 -4,-1790 c -3,-1713 -2,-1793 15,-1849 45,-145 126,-257 242,-335 42,-28 106,-61 143,-73 l 67,-23 1473,-5 1474,-5 613,-1315 c 338,-723 626,-1340 642,-1370 75,-148 237,-250 398,-250 76,0 214,27 286,56 252,102 1205,502 1251,525 114,57 212,188 239,317 39,192 -69,396 -243,458 -63,22 -200,20 -274,-5 -32,-11 -225,-89 -429,-174 -203,-85 -373,-152 -376,-148 -4,3 -276,582 -604,1286 -328,704 -612,1308 -631,1342 -80,144 -169,221 -312,266 -42,14 -88,29 -102,33 -14,5 -592,11 -1285,14 l -1260,5 -3,518 -2,517 h 912 c 999,0 977,-1 1097,60 70,35 172,126 195,174 13,27 16,69 16,209 0,97 -4,187 -10,201 -27,71 -155,172 -274,215 l -71,26 -932,3 -933,3 v 485 484 l 28,12 c 218,91 359,183 502,327 119,120 180,206 250,353 308,652 -64,1414 -812,1662 -186,61 -456,91 -633,69 z"
         id="path826"
         style="fill:#f8f9fa;fill-opacity:1" />
      <path
         d="M 3085,10065 C 2553,9961 1923,9673 1445,9315 1128,9077 893,8825 655,8466 122,7662 -94,6713 40,5760 201,4615 852,3594 1840,2935 c 495,-330 974,-537 1570,-679 184,-44 402,-80 660,-108 153,-16 697,-16 865,0 729,72 1362,271 1965,617 371,213 758,519 1024,809 l 89,96 -228,478 c -125,262 -232,481 -236,487 -6,5 -31,-12 -67,-46 -171,-165 -448,-379 -682,-526 -617,-390 -1287,-620 -1992,-684 -170,-15 -664,-6 -818,15 -786,110 -1442,424 -1967,944 -702,695 -985,1602 -782,2515 149,675 616,1345 1239,1779 170,118 440,258 671,348 l 86,34 7,286 c 3,157 9,399 13,538 l 6,252 -29,-1 c -16,0 -83,-11 -149,-24 z"
         id="path828"
         style="fill:#f8f9fa;fill-opacity:1" />
    </g>
  </g>
</svg>
