<?xml version="1.0" encoding="UTF-8" standalone="no"?>
<!-- Created with Inkscape (http://www.inkscape.org/) -->

<svg
   width="16"
   height="16"
   viewBox="0 0 16 16"
   version="1.1"
   id="svg5"
   sodipodi:docname="iconoExito.svg"
   inkscape:version="1.1.1 (3bf5ae0d25, 2021-09-20)"
   xmlns:inkscape="http://www.inkscape.org/namespaces/inkscape"
   xmlns:sodipodi="http://sodipodi.sourceforge.net/DTD/sodipodi-0.dtd"
   xmlns="http://www.w3.org/2000/svg"
   xmlns:svg="http://www.w3.org/2000/svg">
  <sodipodi:namedview
     id="namedview7"
     pagecolor="#ffffff"
     bordercolor="#666666"
     borderopacity="1.0"
     inkscape:pageshadow="2"
     inkscape:pageopacity="0.0"
     inkscape:pagecheckerboard="0"
     inkscape:document-units="px"
     showgrid="false"
     inkscape:zoom="11.313709"
     inkscape:cx="-5.8336309"
     inkscape:cy="-4.0216698"
     inkscape:window-width="1920"
     inkscape:window-height="1017"
     inkscape:window-x="-8"
     inkscape:window-y="-8"
     inkscape:window-maximized="1"
     inkscape:current-layer="layer1" />
  <defs
     id="defs2">
    <pattern
       id="EMFhbasepattern"
       patternUnits="userSpaceOnUse"
       width="6"
       height="6"
       x="0"
       y="0" />
  </defs>
  <g
     inkscape:label="Capa 1"
     inkscape:groupmode="layer"
     id="layer1">
    <path
       id="path868"
       style="font-variation-settings:normal;opacity:1;vector-effect:none;fill:#9ede96;fill-opacity:1;fill-rule:evenodd;stroke-width:0.999999;stroke-linecap:butt;stroke-linejoin:miter;stroke-miterlimit:4;stroke-dasharray:none;stroke-dashoffset:0;stroke-opacity:1;-inkscape-stroke:none;stop-color:#000000;stop-opacity:1"
       d="M 8.0390625,0.38476562 C 3.8542674,0.38410162 0.46135224,3.7761426 0.4609375,7.9609375 0.46027367,12.146495 3.8535048,15.539727 8.0390625,15.539062 12.223857,15.538647 15.615898,12.145732 15.615234,7.9609375 15.614819,3.7769056 12.223095,0.38518062 8.0390625,0.38476562 Z M 11.982422,3.8066406 c 0.328208,0.0015 0.698734,0.0994 1.091797,0.367187 L 7.2441406,12.826172 2.6640625,7.8105469 c 0,0 0.7943246,-0.7451531 1.25,-0.6894531 1.1979196,0.1464305 3.2389318,3.2048482 3.2389318,3.2048482 L 10.576172,4.4238276 c 0,0 0.567496,-0.621153 1.40625,-0.617187 z"
       sodipodi:nodetypes="cccccscccsccs" />
    <path
       style="fill:#000000;stroke-width:1.33308"
       id="path16258"
       d="" />
  </g>
</svg>
