<?xml version="1.0" encoding="utf-8"?>
<!-- Generator: Adobe Illustrator 16.0.0, SVG Export Plug-In . SVG Version: 6.00 Build 0)  -->
<!DOCTYPE svg PUBLIC "-//W3C//DTD SVG 1.1//EN" "http://www.w3.org/Graphics/SVG/1.1/DTD/svg11.dtd">
<svg version="1.1" id="Layer_1" xmlns="http://www.w3.org/2000/svg" xmlns:xlink="http://www.w3.org/1999/xlink" x="0px" y="0px"
	 width="28.375px" height="13px" viewBox="0 0 28.375 13" enable-background="new 0 0 28.375 13" xml:space="preserve">
<g>
	<g>
		<path opacity="0.8" fill="#FF7833" d="M28.542,5.834L18.375,0h-1.319c-0.01,0.144-0.021,0.317-0.032,0.521
			c-0.013,0.206-0.029,0.438-0.052,0.696c-0.021,0.258-0.041,0.528-0.06,0.812l1.483-1.347c0.055-0.049,0.106-0.083,0.152-0.101
			c0.047-0.019,0.082-0.028,0.106-0.028c0.068,0,0.143,0.043,0.223,0.129c0.08,0.087,0.156,0.187,0.228,0.3
			c0.07,0.114,0.13,0.23,0.176,0.351c0.047,0.12,0.069,0.217,0.069,0.29c0,0.179-0.144,0.366-0.431,0.563
			c-0.287,0.197-0.722,0.418-1.303,0.664c0.26,0.289,0.507,0.554,0.742,0.793c0.234,0.24,0.439,0.452,0.616,0.637
			c0.176,0.184,0.316,0.335,0.422,0.451c0.104,0.117,0.157,0.193,0.157,0.23c0,0.031-0.016,0.093-0.046,0.185
			c-0.031,0.092-0.081,0.188-0.148,0.286c-0.018,0.025-0.046,0.043-0.066,0.067c0.131,0.114,0.25,0.246,0.356,0.401
			c0.109,0.158,0.198,0.321,0.268,0.487c0.069,0.165,0.104,0.298,0.104,0.396c0,0.135-0.086,0.304-0.257,0.509
			c-0.171,0.204-0.381,0.416-0.628,0.635c-0.248,0.219-0.51,0.433-0.786,0.641c-0.277,0.209-0.521,0.38-0.732,0.514
			c0.088,0.17,0.2,0.365,0.339,0.588c0.138,0.223,0.285,0.455,0.442,0.699c0.156,0.243,0.314,0.486,0.475,0.73
			c0.16,0.243,0.305,0.471,0.432,0.683c0.093,0.153,0.158,0.281,0.226,0.411l3.262-2.277L24.917,13h3.458l-3.542-4.583L28.542,5.834
			z"/>
		<path opacity="0.8" fill="#FF7833" d="M1.494,11.55c0.262,0.077,0.498,0.116,0.711,0.116c0.225,0,0.406-0.032,0.545-0.096
			s0.246-0.143,0.322-0.238c0.076-0.095,0.127-0.201,0.152-0.317s0.039-0.224,0.039-0.323c0-0.261-0.074-0.481-0.225-0.661
			C2.891,9.85,2.633,9.76,2.27,9.76c-0.08,0-0.178,0.005-0.295,0.016S1.738,9.802,1.613,9.823L1.494,11.55z"/>
		<path opacity="0.8" fill="#FF7833" d="M6.924,0.208c-0.016,0.23-0.036,0.49-0.061,0.779s-0.05,0.59-0.074,0.903
			S6.74,2.504,6.715,2.79C6.69,3.075,6.67,3.332,6.655,3.56C6.64,3.787,6.632,3.959,6.632,4.076c0,0.16,0.029,0.273,0.088,0.341
			c0.059,0.068,0.122,0.115,0.19,0.144C6.978,4.588,7.041,4.606,7.1,4.615c0.059,0.01,0.088,0.029,0.088,0.061
			c0,0.135-0.015,0.269-0.046,0.4C7.11,5.209,7.055,5.328,6.975,5.436C6.895,5.544,6.785,5.63,6.646,5.694
			C6.507,5.759,6.329,5.791,6.112,5.791c-0.383,0-0.658-0.102-0.825-0.305c-0.166-0.202-0.25-0.537-0.25-1.005
			c0-0.073,0.005-0.166,0.014-0.276c0.01-0.11,0.022-0.254,0.037-0.429c0.016-0.175,0.036-0.392,0.061-0.65
			c0.024-0.258,0.051-0.571,0.079-0.94c0.027-0.368,0.059-0.802,0.093-1.3C5.338,0.615,5.357,0.317,5.377,0H4.383
			C4.396,0.029,4.418,0.054,4.43,0.084c0.084,0.202,0.125,0.418,0.125,0.646c0,0.394-0.115,0.681-0.348,0.861
			c-0.23,0.182-0.561,0.272-0.986,0.272C3.084,1.863,3,1.853,2.965,1.831C2.932,1.81,2.914,1.765,2.914,1.697
			C2.908,1.488,2.902,1.307,2.896,1.153S2.869,0.872,2.832,0.771S2.736,0.596,2.66,0.55C2.582,0.503,2.477,0.48,2.34,0.48
			c-0.197,0-0.365,0.041-0.506,0.124c-0.139,0.083-0.256,0.19-0.352,0.323C1.438,0.988,1.411,1.066,1.375,1.135v2.911
			c0.188,0.203,0.454,0.316,0.816,0.316c0.254,0,0.469-0.037,0.645-0.111c0.176-0.073,0.326-0.156,0.449-0.249
			C3.408,3.91,3.52,3.827,3.615,3.753c0.096-0.073,0.193-0.11,0.291-0.11c0.123,0,0.186,0.093,0.186,0.276
			c0,0.099-0.012,0.217-0.037,0.355C4.029,4.412,3.996,4.568,3.953,4.74C3.928,4.845,3.867,4.958,3.771,5.081
			S3.545,5.319,3.379,5.427C3.365,5.436,3.348,5.442,3.334,5.451c0.031,0.006,0.069,0.008,0.1,0.015
			C3.83,5.555,4.152,5.68,4.4,5.842c0.246,0.162,0.43,0.363,0.545,0.604c0.117,0.24,0.176,0.512,0.176,0.815
			c0,0.17-0.02,0.344-0.055,0.524c-0.037,0.18-0.098,0.351-0.186,0.514C4.793,8.461,4.674,8.604,4.525,8.728
			c-0.148,0.123-0.338,0.214-0.563,0.27c0.422,0.127,0.721,0.338,0.896,0.631c0.174,0.293,0.262,0.641,0.262,1.043
			c0,0.324-0.055,0.63-0.164,0.915c-0.109,0.286-0.299,0.537-0.568,0.752c-0.27,0.216-0.627,0.387-1.07,0.514
			C3.07,12.923,2.778,12.969,2.459,13h6.1c-0.367-0.038-0.704-0.103-0.975-0.223c-0.396-0.176-0.714-0.414-0.95-0.715
			c-0.236-0.3-0.404-0.654-0.503-1.063c-0.098-0.409-0.147-0.848-0.147-1.313c0-0.551,0.066-1.089,0.197-1.614
			c0.131-0.526,0.351-0.994,0.661-1.403C7.15,6.259,7.561,5.929,8.07,5.678c0.053-0.026,0.123-0.035,0.178-0.059
			c-0.079-0.03-0.159-0.062-0.212-0.106c-0.071-0.063-0.12-0.139-0.148-0.231C7.86,5.19,7.847,5.084,7.847,4.966
			c0-0.079,0.004-0.189,0.014-0.334c0.009-0.143,0.026-0.34,0.051-0.594c0.024-0.253,0.054-0.574,0.088-0.962
			s0.076-0.87,0.125-1.442C8.131,1.519,8.146,1.45,8.171,1.431c0.019-0.016,0.067-0.024,0.148-0.024h0.361
			c0.191,0,0.348,0.016,0.468,0.047C9.27,1.484,9.365,1.531,9.437,1.594c0.07,0.063,0.12,0.14,0.148,0.227
			c0.027,0.09,0.041,0.188,0.041,0.298c0,0.079-0.006,0.195-0.019,0.353C9.595,2.626,9.578,2.84,9.557,3.107
			C9.535,3.376,9.506,3.71,9.469,4.108c-0.032,0.35-0.074,0.773-0.121,1.25c0.204-0.022,0.397-0.057,0.623-0.057
			c0.517,0,0.958,0.071,1.33,0.208c-0.092-0.055-0.182-0.112-0.266-0.185c-0.204-0.175-0.373-0.411-0.506-0.71
			c-0.133-0.298-0.199-0.671-0.199-1.12c0-0.16,0.011-0.343,0.033-0.549c0.021-0.206,0.065-0.418,0.134-0.636
			c0.068-0.219,0.159-0.434,0.273-0.646s0.268-0.401,0.459-0.567s0.422-0.3,0.69-0.4c0.27-0.102,0.589-0.152,0.96-0.152
			c0.303,0,0.563,0.035,0.783,0.105c0.219,0.071,0.399,0.166,0.542,0.286s0.249,0.26,0.32,0.42c0.07,0.159,0.106,0.332,0.106,0.516
			c0,0.332-0.105,0.576-0.315,0.733c-0.21,0.156-0.507,0.235-0.89,0.235c-0.093,0-0.156-0.008-0.19-0.023s-0.051-0.051-0.051-0.105
			c0-0.148-0.003-0.28-0.01-0.396C13.17,2.198,13.153,2.1,13.125,2.02C13.098,1.94,13.056,1.879,13,1.836s-0.136-0.064-0.241-0.064
			c-0.191,0-0.345,0.061-0.459,0.184s-0.2,0.272-0.259,0.447c-0.06,0.176-0.097,0.355-0.111,0.54
			c-0.016,0.184-0.023,0.338-0.023,0.461c0,0.437,0.069,0.74,0.209,0.912c0.139,0.173,0.359,0.259,0.662,0.259
			c0.18,0,0.335-0.024,0.469-0.074c0.133-0.049,0.248-0.104,0.348-0.166c0.099-0.062,0.182-0.116,0.25-0.166
			c0.067-0.049,0.13-0.073,0.186-0.073c0.142,0,0.213,0.092,0.213,0.276c0,0.043-0.009,0.103-0.027,0.18s-0.044,0.157-0.074,0.24
			c-0.031,0.083-0.063,0.161-0.098,0.234c-0.034,0.074-0.066,0.13-0.098,0.166c-0.03,0.031-0.085,0.08-0.162,0.147
			c-0.077,0.068-0.181,0.136-0.311,0.203s-0.281,0.128-0.454,0.18C12.846,5.774,12.654,5.8,12.444,5.8
			c-0.235,0-0.478-0.035-0.729-0.105c-0.065-0.019-0.125-0.051-0.188-0.076c0.287,0.139,0.541,0.309,0.736,0.536
			c0.24,0.279,0.415,0.618,0.524,1.017s0.164,0.853,0.164,1.36c0,0.282-0.021,0.59-0.061,0.922c-0.04,0.331-0.112,0.665-0.218,1
			c-0.106,0.336-0.25,0.658-0.432,0.969c-0.183,0.312-0.417,0.587-0.705,0.826c-0.287,0.24-0.632,0.433-1.032,0.577
			C10.261,12.914,9.979,12.966,9.679,13h4.53c-0.057-0.027-0.117-0.067-0.18-0.122c-0.128-0.109-0.246-0.239-0.355-0.392
			c-0.109-0.151-0.2-0.313-0.273-0.487c-0.072-0.173-0.108-0.322-0.108-0.449c0-0.148,0.08-0.327,0.24-0.535s0.36-0.424,0.601-0.646
			c0.24-0.223,0.501-0.439,0.781-0.651s0.544-0.399,0.792-0.562c-0.299-0.494-0.579-0.951-0.842-1.371
			c-0.262-0.42-0.487-0.789-0.677-1.106c-0.189-0.318-0.339-0.572-0.448-0.763s-0.164-0.304-0.164-0.339s0.063-0.07,0.187-0.105
			c0.123-0.036,0.302-0.054,0.535-0.054c0.284,0,0.533,0.018,0.748,0.054c0.215,0.035,0.4,0.095,0.557,0.18
			c0.157,0.085,0.293,0.197,0.41,0.339c0.116,0.142,0.222,0.314,0.316,0.519l0.601,1.324c0.153-0.191,0.288-0.371,0.404-0.54
			c0.117-0.17,0.237-0.347,0.36-0.53c0.124-0.183,0.259-0.381,0.404-0.593c0.09-0.131,0.207-0.295,0.316-0.449
			c-0.058-0.025-0.115-0.048-0.172-0.087c-0.164-0.11-0.326-0.261-0.486-0.451c-0.161-0.19-0.323-0.417-0.487-0.678
			c-0.164-0.262-0.329-0.546-0.496-0.853c-0.024,0.325-0.049,0.645-0.074,0.958c-0.024,0.313-0.049,0.618-0.074,0.913
			c-0.006,0.074-0.021,0.123-0.046,0.147s-0.077,0.037-0.157,0.037h-0.334c-0.191,0-0.35-0.02-0.473-0.06
			c-0.124-0.04-0.22-0.098-0.287-0.171c-0.068-0.074-0.116-0.167-0.145-0.281c-0.027-0.113-0.041-0.244-0.041-0.392
			c0-0.074,0.003-0.15,0.009-0.23s0.016-0.194,0.028-0.342c0.012-0.147,0.029-0.341,0.051-0.58c0.021-0.24,0.048-0.557,0.079-0.95
			c0.03-0.394,0.065-0.877,0.106-1.452C15.44,0.889,15.468,0.46,15.497,0h-5.466c0,0.626-0.507,1.133-1.133,1.133
			S7.766,0.626,7.766,0h-0.83C6.933,0.066,6.929,0.13,6.924,0.208z"/>
		<path opacity="0.8" fill="#FF7833" d="M10.855,9.416c0.044-0.314,0.065-0.581,0.065-0.8c0-0.516-0.091-0.923-0.272-1.223
			c-0.183-0.301-0.484-0.45-0.907-0.45c-0.255,0-0.475,0.044-0.66,0.132c-0.187,0.089-0.343,0.207-0.47,0.355
			C8.483,7.578,8.382,7.744,8.305,7.928c-0.076,0.184-0.136,0.373-0.18,0.566C8.081,8.688,8.052,8.876,8.037,9.056
			S8.016,9.396,8.016,9.537c0,0.643,0.111,1.112,0.333,1.408c0.223,0.297,0.537,0.445,0.945,0.445c0.335,0,0.607-0.104,0.819-0.313
			c0.211-0.208,0.377-0.459,0.497-0.752S10.813,9.729,10.855,9.416z"/>
		<path opacity="0.8" fill="#FF7833" d="M2.871,8.31c0.131-0.05,0.234-0.113,0.311-0.191c0.076-0.077,0.127-0.162,0.152-0.254
			S3.373,7.685,3.373,7.6c0-0.219-0.074-0.407-0.225-0.566C3,6.874,2.742,6.795,2.379,6.795c-0.08,0-0.17,0.005-0.268,0.016
			S1.912,6.834,1.811,6.848C1.797,7.031,1.783,7.247,1.773,7.494C1.762,7.741,1.746,8.009,1.723,8.299
			c0.234,0.057,0.441,0.084,0.623,0.084C2.564,8.383,2.74,8.358,2.871,8.31z"/>
		<path opacity="0.8" fill="#FF7833" d="M18.338,12.904c-0.196-0.027-0.362-0.07-0.497-0.127c-0.135-0.056-0.245-0.125-0.333-0.206
			c-0.087-0.081-0.156-0.179-0.207-0.291l-0.918-1.854c-0.255,0.382-0.506,0.765-0.754,1.149c-0.247,0.385-0.517,0.792-0.808,1.223
			c-0.015,0.021-0.067,0.067-0.159,0.138c-0.055,0.042-0.115,0.047-0.174,0.063h3.887l0.115-0.081
			C18.439,12.914,18.384,12.911,18.338,12.904z"/>
	</g>
</g>
<g>
	<path fill="#FFFFFF" d="M8.898,1.133c0.626,0,1.133-0.507,1.133-1.133H7.766C7.766,0.626,8.272,1.133,8.898,1.133z"/>
	<path fill="#FFFFFF" d="M5.228,2.186c-0.028,0.369-0.055,0.683-0.079,0.94c-0.024,0.259-0.045,0.476-0.061,0.65
		C5.073,3.951,5.061,4.095,5.051,4.205c-0.009,0.11-0.014,0.203-0.014,0.276c0,0.468,0.084,0.803,0.25,1.005
		c0.167,0.203,0.442,0.305,0.825,0.305c0.217,0,0.395-0.032,0.533-0.097c0.14-0.064,0.249-0.15,0.329-0.259
		c0.08-0.107,0.136-0.227,0.167-0.359c0.031-0.132,0.046-0.266,0.046-0.4c0-0.031-0.029-0.051-0.088-0.061
		C7.041,4.606,6.978,4.588,6.91,4.561C6.842,4.532,6.778,4.485,6.72,4.417C6.661,4.35,6.632,4.236,6.632,4.076
		c0-0.117,0.008-0.289,0.023-0.517C6.67,3.332,6.69,3.075,6.715,2.79c0.025-0.286,0.05-0.586,0.074-0.899s0.05-0.614,0.074-0.903
		s0.045-0.549,0.061-0.779C6.929,0.13,6.933,0.066,6.936,0H5.377C5.357,0.317,5.338,0.615,5.32,0.886
		C5.286,1.384,5.255,1.817,5.228,2.186z"/>
	<polygon fill="#FFFFFF" points="21.375,0 18.375,0 21.375,1.722 	"/>
	<path fill="#FFFFFF" d="M19.53,12.193c-0.067-0.13-0.133-0.258-0.226-0.411c-0.127-0.212-0.271-0.439-0.432-0.683
		c-0.16-0.244-0.318-0.487-0.475-0.73c-0.157-0.244-0.305-0.477-0.442-0.699c-0.139-0.223-0.251-0.418-0.339-0.588
		c0.211-0.134,0.455-0.305,0.732-0.514c0.276-0.208,0.538-0.422,0.786-0.641c0.247-0.219,0.457-0.431,0.628-0.635
		c0.171-0.205,0.257-0.374,0.257-0.509c0-0.099-0.034-0.231-0.104-0.396c-0.069-0.166-0.158-0.329-0.268-0.487
		c-0.106-0.155-0.226-0.287-0.356-0.401c0.021-0.024,0.049-0.042,0.066-0.067c0.067-0.099,0.117-0.194,0.148-0.286
		c0.03-0.092,0.046-0.153,0.046-0.185c0-0.037-0.053-0.113-0.157-0.23c-0.105-0.116-0.246-0.268-0.422-0.451
		c-0.177-0.185-0.382-0.396-0.616-0.637c-0.235-0.239-0.482-0.504-0.742-0.793c0.581-0.246,1.016-0.467,1.303-0.664
		c0.287-0.196,0.431-0.384,0.431-0.563c0-0.073-0.022-0.17-0.069-0.29c-0.046-0.12-0.105-0.236-0.176-0.351
		c-0.071-0.113-0.147-0.213-0.228-0.3c-0.08-0.086-0.154-0.129-0.223-0.129c-0.024,0-0.06,0.01-0.106,0.028
		C18.502,0.6,18.45,0.634,18.396,0.683l-1.483,1.347c0.019-0.283,0.038-0.554,0.06-0.812c0.022-0.258,0.039-0.49,0.052-0.696
		C17.035,0.317,17.046,0.144,17.056,0h-1.559c-0.029,0.46-0.057,0.889-0.082,1.25c-0.041,0.575-0.076,1.059-0.106,1.452
		c-0.031,0.394-0.058,0.71-0.079,0.95c-0.021,0.239-0.039,0.433-0.051,0.58c-0.013,0.147-0.022,0.262-0.028,0.342
		s-0.009,0.156-0.009,0.23c0,0.147,0.014,0.278,0.041,0.392c0.028,0.114,0.076,0.207,0.145,0.281
		c0.067,0.073,0.163,0.277,0.287,0.317C15.737,5.834,15.896,6,16.087,6h0.334c0.08,0,0.133-0.159,0.157-0.183s0.04-0.146,0.046-0.22
		c0.025-0.295,0.05-0.636,0.074-0.95c0.025-0.313,0.05-0.651,0.074-0.977c0.167,0.307,0.332,0.582,0.496,0.844
		c0.164,0.261,0.326,0.482,0.487,0.673c0.16,0.19,0.322,0.339,0.486,0.449c0.057,0.039,0.114,0.06,0.172,0.085
		c-0.109,0.154-0.227,0.318-0.316,0.449c-0.146,0.212-0.28,0.41-0.404,0.593c-0.123,0.184-0.243,0.36-0.36,0.53
		c-0.116,0.169-0.251,0.349-0.404,0.54l-0.601-1.324c-0.095-0.204-0.2-0.377-0.316-0.519c-0.117-0.142-0.253-0.254-0.41-0.339
		c-0.156-0.085-0.342-0.145-0.557-0.18c-0.215-0.036-0.464-0.054-0.748-0.054c-0.233,0-0.412,0.018-0.535,0.054
		c-0.124,0.035-0.187,0.07-0.187,0.105s0.055,0.148,0.164,0.339s0.259,0.444,0.448,0.763c0.189,0.317,0.415,0.687,0.677,1.106
		c0.263,0.42,0.543,0.877,0.842,1.371c-0.248,0.162-0.512,0.35-0.792,0.562s-0.541,0.429-0.781,0.651
		c-0.24,0.222-0.44,0.438-0.601,0.646s-0.24,0.387-0.24,0.535c0,0.127,0.036,0.276,0.108,0.449c0.073,0.174,0.164,0.336,0.273,0.487
		c0.109,0.152,0.228,0.282,0.355,0.392c0.063,0.055,0.123,0.095,0.18,0.122h0.279c0.059-0.017,0.119-0.021,0.174-0.063
		c0.092-0.07,0.145-0.116,0.159-0.138c0.291-0.431,0.561-0.838,0.808-1.223c0.248-0.385,0.499-0.768,0.754-1.149l0.918,1.854
		c0.051,0.112,0.12,0.21,0.207,0.291c0.088,0.081,0.198,0.15,0.333,0.206c0.135,0.057,0.301,0.1,0.497,0.127
		c0.046,0.007,0.102,0.01,0.152,0.015L18.375,13h3v-2.095L19.53,12.193z"/>
	<path fill="#FFFFFF" d="M11.538,12.248c0.288-0.239,0.522-0.515,0.705-0.826c0.182-0.311,0.325-0.633,0.432-0.969
		c0.105-0.335,0.178-0.669,0.218-1c0.04-0.332,0.061-0.64,0.061-0.922c0-0.508-0.055-0.962-0.164-1.36s-0.284-0.737-0.524-1.017
		c-0.195-0.228-0.449-0.397-0.736-0.536c0.063,0.025,0.122,0.058,0.188,0.076c0.251,0.07,0.493,0.105,0.729,0.105
		c0.21,0,0.401-0.025,0.574-0.078c0.173-0.052,0.324-0.112,0.454-0.18s0.233-0.135,0.311-0.203c0.077-0.067,0.132-0.116,0.162-0.147
		c0.031-0.036,0.063-0.092,0.098-0.166c0.034-0.073,0.066-0.151,0.098-0.234c0.03-0.083,0.056-0.163,0.074-0.24
		s0.027-0.137,0.027-0.18c0-0.185-0.071-0.276-0.213-0.276c-0.056,0-0.118,0.024-0.186,0.073c-0.068,0.05-0.151,0.104-0.25,0.166
		c-0.1,0.062-0.215,0.117-0.348,0.166c-0.134,0.05-0.289,0.074-0.469,0.074c-0.303,0-0.523-0.086-0.662-0.259
		c-0.14-0.172-0.209-0.476-0.209-0.912c0-0.123,0.008-0.277,0.023-0.461c0.015-0.185,0.052-0.364,0.111-0.54
		C12.1,2.228,12.186,2.078,12.3,1.955s0.268-0.184,0.459-0.184c0.105,0,0.186,0.021,0.241,0.064s0.098,0.104,0.125,0.184
		c0.028,0.08,0.045,0.179,0.051,0.296c0.007,0.116,0.01,0.248,0.01,0.396c0,0.055,0.017,0.09,0.051,0.105s0.098,0.023,0.19,0.023
		c0.383,0,0.68-0.079,0.89-0.235c0.21-0.157,0.315-0.401,0.315-0.733c0-0.184-0.036-0.356-0.106-0.516
		c-0.071-0.16-0.178-0.3-0.32-0.42s-0.323-0.215-0.542-0.286c-0.22-0.07-0.48-0.105-0.783-0.105c-0.371,0-0.69,0.051-0.96,0.152
		c-0.269,0.101-0.499,0.234-0.69,0.4s-0.345,0.355-0.459,0.567s-0.205,0.427-0.273,0.646c-0.068,0.218-0.112,0.43-0.134,0.636
		c-0.022,0.206-0.033,0.389-0.033,0.549c0,0.449,0.066,0.822,0.199,1.12c0.133,0.299,0.302,0.535,0.506,0.71
		c0.084,0.072,0.174,0.13,0.266,0.185c-0.372-0.137-0.813-0.208-1.33-0.208c-0.226,0-0.419,0.034-0.623,0.057
		c0.047-0.477,0.089-0.9,0.121-1.25C9.506,3.71,9.535,3.376,9.557,3.107C9.578,2.84,9.595,2.626,9.607,2.471
		C9.62,2.313,9.626,2.197,9.626,2.118c0-0.109-0.014-0.208-0.041-0.298C9.557,1.733,9.507,1.656,9.437,1.594
		C9.365,1.531,9.27,1.281,9.148,1.25C9.028,1.219,8.872,1,8.681,1H8.319c-0.081,0-0.13,0.212-0.148,0.228
		c-0.024,0.02-0.04,0.189-0.047,0.305C8.075,2.104,8.033,2.638,7.999,3.025S7.936,3.76,7.911,4.013
		C7.887,4.267,7.869,4.477,7.86,4.619c-0.01,0.145-0.014,0.261-0.014,0.34c0,0.118,0.014,0.228,0.041,0.319
		c0.028,0.093,0.077,0.169,0.148,0.233c0.053,0.045,0.133,0.077,0.212,0.107C8.193,5.642,8.123,5.651,8.07,5.677
		c-0.51,0.251-0.92,0.582-1.229,0.991c-0.311,0.409-0.53,0.877-0.661,1.403C6.05,8.597,5.983,9.135,5.983,9.686
		c0,0.466,0.05,0.904,0.147,1.313c0.099,0.409,0.267,0.764,0.503,1.063c0.236,0.301,0.554,0.539,0.95,0.715
		c0.271,0.12,0.607,0.185,0.975,0.223h1.12c0.3-0.034,0.582-0.086,0.827-0.175C10.906,12.681,11.251,12.488,11.538,12.248z
		 M9.294,11.391c-0.408,0-0.723-0.148-0.945-0.445c-0.222-0.296-0.333-0.766-0.333-1.408c0-0.141,0.007-0.302,0.021-0.481
		s0.044-0.367,0.088-0.562c0.044-0.193,0.104-0.383,0.18-0.566c0.077-0.184,0.179-0.35,0.307-0.497
		c0.127-0.148,0.283-0.267,0.47-0.355c0.186-0.088,0.405-0.132,0.66-0.132c0.423,0,0.725,0.149,0.907,0.45
		c0.182,0.3,0.272,0.707,0.272,1.223c0,0.219-0.021,0.485-0.065,0.8c-0.043,0.313-0.125,0.617-0.245,0.91s-0.286,0.544-0.497,0.752
		C9.901,11.286,9.629,11.391,9.294,11.391z"/>
	<path fill="#FFFFFF" d="M4.389,12.338c0.27-0.215,0.459-0.466,0.568-0.752c0.109-0.285,0.164-0.591,0.164-0.915
		c0-0.402-0.088-0.75-0.262-1.043C4.684,9.335,4.385,9.124,3.963,8.997c0.225-0.056,0.414-0.146,0.563-0.27
		c0.148-0.124,0.268-0.267,0.355-0.429c0.088-0.163,0.148-0.334,0.186-0.514c0.035-0.181,0.055-0.354,0.055-0.524
		c0-0.304-0.059-0.575-0.176-0.815C4.83,6.205,4.646,6.004,4.4,5.842C4.152,5.68,3.83,5.555,3.434,5.466
		c-0.03-0.007-0.068-0.009-0.1-0.015c0.014-0.009,0.031-0.016,0.045-0.024c0.166-0.107,0.297-0.223,0.393-0.346
		S3.928,4.845,3.953,4.74c0.043-0.172,0.076-0.328,0.102-0.466C4.08,4.136,4.092,4.018,4.092,3.919c0-0.184-0.063-0.276-0.186-0.276
		c-0.098,0-0.195,0.037-0.291,0.11C3.52,3.827,3.408,3.91,3.285,4.002C3.162,4.095,3.012,4.178,2.836,4.251
		C2.66,4.325,2.445,4.362,2.191,4.362c-0.362,0-0.629-0.113-0.816-0.316V1.135c0.036-0.068,0.063-0.146,0.107-0.207
		c0.096-0.133,0.213-0.24,0.352-0.323C1.975,0.521,2.143,0.48,2.34,0.48c0.137,0,0.242,0.022,0.32,0.069
		c0.076,0.046,0.135,0.119,0.172,0.221S2.891,1,2.896,1.153s0.012,0.335,0.018,0.544c0,0.067,0.018,0.112,0.051,0.134
		C3,1.853,3.084,1.863,3.221,1.863c0.426,0,0.756-0.091,0.986-0.272C4.439,1.41,4.555,1.123,4.555,0.729
		c0-0.228-0.041-0.443-0.125-0.646C4.418,0.054,4.396,0.029,4.383,0H0l-0.625,13h3.084c0.319-0.031,0.611-0.077,0.859-0.148
		C3.762,12.725,4.119,12.554,4.389,12.338z M1.773,7.494c0.01-0.247,0.023-0.463,0.037-0.646c0.102-0.014,0.203-0.026,0.301-0.037
		s0.188-0.016,0.268-0.016c0.363,0,0.621,0.079,0.77,0.238C3.299,7.192,3.373,7.381,3.373,7.6c0,0.085-0.014,0.173-0.039,0.265
		S3.258,8.041,3.182,8.118C3.105,8.196,3.002,8.26,2.871,8.31C2.74,8.358,2.564,8.383,2.346,8.383c-0.182,0-0.389-0.027-0.623-0.084
		C1.746,8.009,1.762,7.741,1.773,7.494z M3.225,11.015c-0.025,0.116-0.076,0.223-0.152,0.317c-0.076,0.096-0.184,0.175-0.322,0.238
		s-0.32,0.096-0.545,0.096c-0.213,0-0.449-0.039-0.711-0.116l0.119-1.727c0.125-0.021,0.244-0.037,0.361-0.048S2.189,9.76,2.27,9.76
		c0.363,0,0.621,0.09,0.77,0.271c0.15,0.18,0.225,0.4,0.225,0.661C3.264,10.791,3.25,10.898,3.225,11.015z"/>
</g>
</svg>
