<?xml version="1.0" encoding="utf-8"?>
<!-- Generator: Adobe Illustrator 16.0.0, SVG Export Plug-In . SVG Version: 6.00 Build 0)  -->
<!DOCTYPE svg PUBLIC "-//W3C//DTD SVG 1.1//EN" "http://www.w3.org/Graphics/SVG/1.1/DTD/svg11.dtd">
<svg version="1.1" xmlns="http://www.w3.org/2000/svg" xmlns:xlink="http://www.w3.org/1999/xlink" x="0px" y="0px"
	 width="426.138px" height="426.138px" viewBox="0 0 426.138 426.138" enable-background="new 0 0 426.138 426.138"
	 xml:space="preserve">
<g id="svg5" xmlns:inkscape="http://www.inkscape.org/namespaces/inkscape" xmlns:sodipodi="http://sodipodi.sourceforge.net/DTD/sodipodi-0.dtd" xmlns:svg="http://www.w3.org/2000/svg" sodipodi:docname="mosaico.svg" inkscape:version="1.1.1 (3bf5ae0d25, 2021-09-20)" display="none" opacity="0.4">
	
		<sodipodi:namedview  inkscape:pageopacity="0.0" inkscape:pagecheckerboard="0" inkscape:current-layer="layer1" inkscape:window-y="-8" inkscape:window-width="1920" inkscape:window-maximized="1" inkscape:pageshadow="2" inkscape:document-units="mm" inkscape:window-x="-8" inkscape:window-height="1017" inkscape:cy="573.40248" inkscape:cx="159.20351" inkscape:zoom="0.37059484" showgrid="false" borderopacity="1.0" bordercolor="#666666" pagecolor="#ffffff" id="namedview7">
		</sodipodi:namedview>
	<g display="inline">
		<g>
			<path fill-rule="evenodd" clip-rule="evenodd" fill="#FEFEFE" d="M0.426,348.154c0-61.222,0-122.443,0-183.665
				c0.404-0.05,0.859,0.004,1.206-0.165c2.911-1.417,5.573-3.204,7.977-5.384c1.645-1.492,2.889-3.304,4.201-5.065
				c1.631-2.19,2.814-4.686,3.565-7.226c0.833-2.818,1.42-5.761,1.436-8.794c0.011-2.101-0.19-4.188-0.588-6.18
				c-0.337-1.688-0.874-3.411-1.521-5.085c-1.354-3.497-3.404-6.479-5.755-9.305c-1.862-2.238-4.281-3.845-6.708-5.367
				c-1.131-0.709-2.29-1.667-3.812-1.548c0-8.665,0-17.33,0-25.994c1.316-0.314,2.265-1.183,3.194-2.131
				c0.545,0,1.299-0.23,1.636,0.047c0.729,0.599,1.479,0.258,2.205,0.382c0.726,0.125,1.444,0.394,2.168,0.404
				c4.412,0.063,8.793,0.052,13.123-1.196c2.163-0.624,4.293-1.26,6.375-2.114c4.054-1.663,7.708-4.01,10.993-6.838
				c2.271-1.954,4.184-4.331,6.2-6.57c0.571-0.634,0.896-1.483,1.416-2.172c1.569-2.079,2.613-4.447,3.865-6.705
				c0.874-1.575,0.979-3.443,2.092-4.891c-0.112-1.659,0.723-3.13,1.026-4.71c0.432-2.248,0.725-4.512,1.079-6.767
				c0.153-0.97,0.025-1.984,0.025-2.979c0-1.065,0.002-2.13,0-3.195c-0.003-0.956-0.138-1.874-0.357-2.822
				c-0.223-0.967-0.204-2.005-0.466-3.011c-0.272-1.043-0.172-2.192-0.495-3.211c-0.322-1.015-0.877-1.952-0.813-3.069
				c-1.208-1.761-1.46-3.929-2.523-5.777c-1.427-2.482-2.6-5.108-4.526-7.284c-0.676-0.763-1.332-1.56-1.887-2.413
				c-1.325-2.036-3.322-3.423-4.898-5.211c-0.975-0.202-1.441-0.974-1.932-1.719c36.222,0,72.444,0,108.665,0
				c0.703,0.916,1.322,1.916,2.127,2.733c1.966,1.993,3.832,4.096,6.128,5.744c2.169,1.558,4.351,3.08,6.728,4.324
				c1.925,1.008,3.863,1.987,5.9,2.726c1.608,0.583,3.202,1.218,4.906,1.542c1.249,0.236,2.456,0.69,3.814,1.086
				c-1.494,1.728-2.015,3.679-2.715,5.509c-0.828,2.161-1.759,4.336-1.746,6.732c-0.945,0.662,0.118,1.975-0.852,2.629
				c0,0.994,0,1.988,0,2.981c0,1.917,0.03,3.834-0.009,5.75c-0.037,1.857,0.592,3.606,0.932,5.384
				c0.454,2.373,1.208,4.717,2.235,6.939c0.719,1.555,1.511,3.07,2.324,4.582c1.186,2.207,2.526,4.306,4.186,6.121
				c2.931,3.204,6.069,6.183,9.925,8.362c2.198,1.243,4.461,2.235,6.792,3.163c2.058,0.819,4.24,1.054,6.335,1.669
				c0.573,0.168,1.157,0.401,1.74,0.411c2.683,0.044,5.366,0.02,8.05,0.02c0.083-0.494,0.149-0.885,0.217-1.283
				c0.66,0.16,1.28,0.206,1.805,0.454c3.205,1.507,6.482,2.742,10.063,2.96c0.991,0.886,2.25,0.259,3.374,0.578
				c1.174,0.333,2.481,0.279,3.728,0.256c2.004-0.037,4.019,0.251,6.012-0.374c0.813-0.255,1.714-0.022,2.607-0.399
				c0.757-0.32,1.698-0.212,2.581-0.425c2.584-0.622,7.541-2.386,9.469-3.389c0.996-0.518,1.925-1.174,2.945-1.635
				c2.552-1.155,4.632-2.993,6.761-4.72c1.755-1.423,3.271-3.149,4.838-4.793c0.767-0.805,1.413-1.728,2.126-2.613
				c0.295,0.295,0.488,0.421,0.59,0.6c2.059,3.611,4.594,6.87,7.394,9.924c1.971,2.151,4.232,3.981,6.559,5.74
				c2.088,1.577,4.217,3.1,6.518,4.334c2.429,1.305,4.924,2.498,7.448,3.609c1.378,0.607,2.846,1.104,4.323,1.365
				c2.246,0.398,4.357,1.475,6.706,1.316c0.996,0.75,2.219,0.117,3.214,0.476c1.094,0.395,2.161,0.413,3.248,0.361
				c2.781-0.131,5.587,0.395,8.351-0.384c0.784-0.221,1.806,0.147,2.461-0.218c0.896-0.499,1.783,0.055,2.628-0.365
				c0.699-0.347,1.484-0.573,2.257-0.709c3.81-0.671,7.302-2.187,10.785-3.798c2.173-1.004,4.241-2.151,6.233-3.459
				c3.025-1.988,5.898-4.169,8.527-6.662c2.015-1.911,3.792-4.028,5.431-6.267c0.233-0.317,0.581-0.55,1.022-0.957
				c1.293,2.82,3.084,5.098,5.008,7.21c2.335,2.563,4.759,5.061,7.705,7.016c1.393,0.925,2.756,1.866,4.233,2.659
				c1.452,0.78,2.843,1.604,4.419,2.202c1.596,0.606,3.213,1.149,4.813,1.74c1.718,0.633,3.416,1.217,5.272,1.154
				c1.013,0.976,2.352,0.208,3.549,0.68c1.168,0.46,2.64,0.148,3.979,0.171c0.426,0.007,0.858-0.049,1.277,0.009
				c2.033,0.287,3.981-0.558,6-0.435c0.887-0.738,2.003-0.228,2.969-0.545c1.626-0.534,3.264-1.029,4.879-1.591
				c2.552-0.889,5.181-1.603,7.351-3.356c0.38-0.306,0.994-0.323,1.499-0.474c0,8.381,0,16.761,0,25.142
				c-0.263-0.05-0.547-0.052-0.785-0.157c-2.526-1.107-5.219-1.582-7.915-1.935c-1.604-0.21-3.276-0.186-4.885,0.005
				c-1.521,0.18-3.05,0.384-4.557,0.774c-1.922,0.498-3.854,1.01-5.605,1.889c-4.143,2.08-7.923,4.642-10.729,8.494
				c-1.813,2.49-3.48,5.007-4.495,7.939c-1.105,3.196-2.004,6.424-1.926,9.838c0.038,1.648,0.038,3.278,0.321,4.948
				c0.352,2.073,1.578,6.588,2.391,8.183c2.108,4.136,4.664,7.909,8.506,10.724c2.486,1.821,5.005,3.522,7.951,4.46
				c1.19,0.379,2.368,0.811,3.577,1.152c1.301,0.367,2.641,0.489,3.936,0.709c1.861,0.316,3.818,0.113,5.732,0.061
				c0.583-0.016,1.157-0.275,1.74-0.404c0.586-0.129,1.283,0.285,1.769-0.355c1.768-0.047,3.269-1.075,4.974-1.352
				c0,60.938,0,121.875,0,182.813c-1.197-0.107-2.046-0.972-2.967-1.555c-2.145-1.356-4.428-2.331-6.807-3.132
				c-2.707-0.913-5.318-2.195-8.277-2.131c-0.837-0.786-1.953-0.097-2.783-0.474c-0.953-0.435-1.877-0.35-2.827-0.373
				c-0.903-0.022-1.809-0.005-2.711-0.005c-0.147-1.441,0.063-2.734-0.42-4.025c-0.291-0.778-0.198-1.711-0.415-2.588
				c-0.223-0.895-0.602-1.776-0.556-2.792c0.036-0.791-0.532-1.599-0.783-2.415c-0.657-2.138-1.276-4.306-2.22-6.321
				c-1.256-2.683-2.773-5.243-4.178-7.856c-1.674-3.118-3.8-5.937-6.212-8.483c-2.459-2.594-4.891-5.232-7.742-7.45
				c-1.446-1.125-2.953-2.157-4.437-3.22c-1.665-1.193-3.6-2.017-5.271-3.15c-2.071-1.405-4.386-2.171-6.581-3.198
				c-2.307-1.079-4.82-1.77-7.303-2.397c-1.544-0.391-3.034-1.06-4.673-1.096c-0.441-0.009-0.869-0.332-1.317-0.389
				c-0.559-0.071-1.258,0.19-1.676-0.06c-0.934-0.555-1.891-0.278-2.831-0.389c-1.009-0.119-2.01-0.372-3.02-0.402
				c-2.128-0.063-4.262,0.043-6.389-0.037c-2.095-0.079-4.111,0.771-6.214,0.444c-0.957,0.494-1.989,0.449-3.019,0.426
				c-0.606,0.95-1.685,0.11-2.499,0.69c-0.648,0.46-1.666,0.386-2.509,0.593c-3.202,0.788-6.314,1.836-9.316,3.218
				c-1.669,0.768-3.415,1.37-5.012,2.301c-0.202,0.118-0.531,0.016-0.828,0.016c-2.073-3.642-4.938-6.588-7.537-9.734
				c-1.231-1.491-2.736-2.758-4.269-3.992c-1.655-1.332-3.272-2.714-4.936-4.045c-2.264-1.811-4.694-3.37-7.196-4.777
				c-3.72-2.091-7.603-3.896-11.601-5.399c-1.285-0.482-2.681-0.773-4.001-1.166c-2.243-0.667-4.498-1.162-6.783-1.632
				c-1.093-0.225-2.238-0.088-3.22-0.434c-0.898-0.316-1.743-0.265-2.616-0.364c-0.869-0.099-1.725-0.354-2.594-0.398
				c-1.346-0.069-2.704,0.064-4.045-0.035c-3.088-0.23-6.126,0.415-9.197,0.442c-0.142,0.001-0.349-0.061-0.415,0.01
				c-0.566,0.601-1.296,0.337-1.963,0.427c-0.728,0.097-1.457,0.428-2.165,0.374c-0.749-0.056-1.264,0.493-1.957,0.472
				c-1.507-0.046-2.883,0.573-4.288,0.966c-1.307,0.365-2.574,0.851-3.95,0.721c-0.588-0.056-1.157-0.294-1.743-0.407
				c-1.646-0.317-3.335-0.49-4.925-0.985c-0.539-0.168-1.048-0.312-1.573-0.283c-1.719,0.092-3.431-0.175-5.167,0.351
				c-1.205,0.364-2.558,0.044-3.865,0.444c-2.215,0.678-4.616,0.83-6.388,2.586c-3.285,1.605-6.075,3.876-8.598,6.484
				c-0.959,0.992-1.77,2.128-2.731,3.117c-1.2,1.232-2.36,2.465-3.176,4.013c-0.407,0.771-1.104,1.384-1.625,2.101
				c-0.55,0.757-1.093,1.526-1.558,2.335c-0.886,1.545-1.662,3.154-2.578,4.68c-1.707,2.845-2.688,5.995-3.779,9.083
				c-0.614,1.738-1.122,3.532-1.417,5.404c-0.227,1.437-0.827,2.832-0.766,4.348c0.007,0.189-0.086,0.386-0.146,0.575
				c-0.408,1.293-0.736,2.582-0.716,3.971c0.052,3.691,0.018,7.383,0.018,11.076c0,0.426-0.15,0.931,0.025,1.265
				c0.973,1.85,0.687,3.945,1.225,5.881c0.62,2.233,0.938,4.55,1.735,6.74c0.99,2.712,1.77,5.509,3.094,8.089
				c1.113,2.17,2.227,4.347,3.477,6.438c1.099,1.836,2.388,3.558,3.592,5.331c0.483,0.711,0.966,1.421,1.451,2.137
				c-0.24,0.137-0.36,0.268-0.469,0.26c-3.267-0.239-6.486,0.212-9.644,0.927c-0.955,0.216-1.953,0.373-2.914,0.627
				c-2.243,0.593-4.394,1.344-6.532,2.251c-3.132,1.329-6.37,2.876-8.605,4.427c-1.405,0.975-2.675,2.126-4.042,3.125
				c-2.913,2.13-5.329,4.764-7.401,7.602c-2.481,3.396-4.58,7.07-5.838,11.196c-1.244,4.074-2.448,8.114-2.397,12.423
				c0.022,1.846-0.3,3.758,0.09,5.518c0.386,1.742,0.661,3.52,1.131,5.257c0.623,2.3,1.251,4.604,2.238,6.747
				c1.047,2.275,1.937,4.685,3.738,6.548c-0.106,0.843,1.208,1.035,0.903,1.969c-36.364,0-72.727,0-109.091,0
				c-0.111-0.768-0.858-0.78-1.331-1.113c-2.656-1.867-7.278-4.461-11.653-5.279c-0.508-0.869-1.522-0.2-2.256-0.785
				c-0.598-0.476-1.669-0.395-2.539-0.481c-0.809-0.08-1.584-0.1-2.398-0.376c-0.827-0.281-1.825-0.052-2.747-0.071
				c-0.179-0.003-0.356-0.117-0.623-0.211c0.728-1.131,1.541-2.133,2.065-3.267c0.962-2.085,2.134-4.06,2.93-6.24
				c0.98-2.681,1.816-5.36,2.459-8.154c0.516-2.239,0.625-4.514,1.124-6.745c0.43-1.921-0.055-9.665-0.37-11.948
				c-0.01-0.069,0.03-0.176-0.006-0.208c-0.611-0.554-0.244-1.333-0.459-1.944c-0.23-0.654-0.342-1.28-0.424-1.961
				c-0.1-0.837-0.483-1.637-0.71-2.463c-0.47-1.715-1.144-3.354-1.762-5.019c-0.877-2.361-2.038-4.581-3.263-6.732
				c-1.597-2.808-3.559-5.434-5.706-7.847c-1.853-2.082-4.019-3.895-6.125-5.735C2.438,349.248,1.383,348.756,0.426,348.154z
				 M139.21,244.603c1.919-0.283,4.347,0.285,6.798-0.352c1.468-0.382,3.015-0.626,4.531-0.901
				c3.742-0.678,7.207-2.128,10.593-3.746c2.46-1.176,4.743-2.675,6.982-4.276c2.181-1.561,4.302-3.157,6.193-5.042
				c1.329-1.324,2.637-2.658,3.825-4.141c2.192-2.738,4.043-5.665,5.662-8.75c0.976-1.86,1.989-3.729,2.679-5.702
				c0.785-2.241,1.442-4.535,1.948-6.877c0.281-1.302,0.09-2.721,0.795-3.915c0.49-0.832,0.41-1.714,0.413-2.599
				c0.007-2.485,0.007-4.97,0-7.455c-0.004-1.636,0.18-3.3-0.78-4.792c-0.131-0.204-0.106-0.552-0.06-0.817
				c0.135-0.788-0.369-1.461-0.39-2.169c-0.022-0.781-0.289-1.45-0.469-2.167c-0.609-2.432-1.417-4.794-2.408-7.097
				c-2.067-4.811-4.814-9.236-8.18-13.205c-2.424-2.857-5.236-5.384-8.318-7.594c-2.553-1.831-5.186-3.517-7.982-4.92
				c-1.813-0.909-3.722-1.649-5.641-2.314c-1.053-0.365-2.114-0.735-3.245-0.946c-1.369-0.254-2.739-0.586-4.098-0.9
				c-1.31-0.303-2.638-0.571-3.945-0.689c-2.113-0.191-4.257-0.098-6.385-0.039c-2.146,0.06-4.275-0.089-6.441,0.339
				c-2.1,0.415-4.212,0.806-6.263,1.386c-2.713,0.768-5.408,1.677-7.917,2.979c-1.521,0.789-3.052,1.569-4.531,2.466
				c-2.622,1.591-5.061,3.37-7.346,5.394c-0.449,0.397-0.734,0.938-1.456,1.125c-0.533,0.139-1.104,0.765-1.331,1.311
				c-0.401,0.963-1.219,1.494-1.853,2.211c-0.375,0.426-0.901,0.747-1.182,1.22c-1.301,2.189-3.046,4.057-4.277,6.313
				c-1.486,2.724-2.865,5.473-3.963,8.376c-0.417,1.104-0.667,2.258-1.217,3.333c-0.54,1.053-0.573,2.32-0.819,3.477
				c-0.479,2.251-1.014,4.54-0.911,6.874c0.164,3.703-0.475,7.437,0.415,11.112c-0.269,2.023,1.029,3.807,0.886,5.811
				c1.248,2.822,1.894,5.878,3.368,8.616c0.845,1.568,1.593,3.177,2.518,4.715c1.617,2.689,3.406,5.218,5.565,7.48
				c1.568,1.644,3.206,3.22,4.812,4.827c0.301,0.301,0.565,0.656,0.91,0.895c1.76,1.224,3.519,2.451,5.318,3.615
				c2.943,1.906,6.082,3.411,9.4,4.556c2.705,0.933,5.381,1.953,8.279,2.123c0.661,0.949,1.976-0.119,2.629,0.853
				c0.994,0,1.988,0,2.982,0C136.439,244.603,137.576,244.603,139.21,244.603z M61.884,290.012
				c-0.155-1.326-0.289-2.902-0.541-4.459c-0.125-0.771-0.525-1.493-0.693-2.261c-0.379-1.728-1.355-3.145-2.268-4.601
				c-1.935-3.089-4.632-5.345-7.693-7.259c-2.438-1.524-5.202-1.94-7.908-2.488c-1.433-0.29-2.978-0.129-4.46-0.022
				c-0.929,0.067-1.913,0.241-2.763,0.52c-1.115,0.366-2.336,0.407-3.376,1.106c-1.032,0.692-2.263,1.087-3.303,1.771
				c-3.146,2.07-5.562,4.831-7.398,8.114c-1.354,2.422-1.811,5.112-2.273,7.784c-0.191,1.103-0.087,2.27-0.016,3.401
				c0.068,1.082,0.216,2.166,0.428,3.229c0.152,0.769,0.528,1.493,0.696,2.261c0.379,1.728,1.355,3.145,2.268,4.602
				c1.935,3.089,4.631,5.345,7.693,7.258c2.438,1.524,5.202,1.94,7.908,2.488c1.433,0.29,2.977,0.129,4.46,0.022
				c0.929-0.066,1.913-0.241,2.763-0.52c1.115-0.366,2.336-0.407,3.376-1.105c1.032-0.692,2.269-1.081,3.301-1.773
				c3.061-2.051,5.469-4.704,7.265-7.953C61.057,297.039,61.633,293.718,61.884,290.012z M253.301,165.698
				c-1.444-0.214-3.457,0.594-5.527,0.947c-0.892,0.152-1.776,0.509-2.594,0.915c-1.563,0.775-3.03,1.72-4.34,2.891
				c-0.51,0.457-1.134,0.805-1.571,1.318c-1.197,1.402-2.437,2.79-3.439,4.326c-0.742,1.137-1.15,2.495-1.69,3.762
				c-0.55,1.292-0.379,2.758-1.006,4.056c-0.223,0.459-0.021,1.119-0.039,1.686c-0.195,6.03,1.692,11.294,5.888,15.653
				c3.81,3.959,8.553,5.996,14.001,6.255c6.028,0.287,11.293-1.692,15.633-5.903c3.936-3.82,5.98-8.564,6.221-14.014
				c0.27-6.111-1.761-11.426-6.091-15.77C264.7,167.761,259.711,165.875,253.301,165.698z M403.126,216.248
				c0-0.994-0.004-1.988,0.002-2.981c0.005-1.026-0.382-1.996-0.552-2.988c-0.148-0.862-0.357-1.807-0.727-2.659
				c-0.39-0.903-0.834-1.792-1.122-2.728c-0.299-0.975-0.826-1.789-1.311-2.663c-0.828-1.499-1.86-2.791-2.864-4.148
				c-0.754-1.021-1.539-2.019-2.507-2.741c-1.024-0.765-1.987-1.617-3.036-2.362c-1.809-1.285-3.708-2.328-5.763-3.09
				c-1.604-0.594-3.252-1.083-4.907-1.514c-0.978-0.254-2.003-0.366-3.014-0.43c-1.132-0.071-2.273,0.031-3.406-0.026
				c-2.69-0.135-5.239,0.552-7.771,1.304c-0.938,0.279-1.798,0.816-2.733,1.104c-0.975,0.299-1.789,0.827-2.663,1.31
				c-1.5,0.828-2.791,1.862-4.147,2.865c-1.021,0.754-2.021,1.539-2.743,2.507c-0.765,1.023-1.616,1.988-2.361,3.036
				c-1.285,1.809-2.327,3.709-3.089,5.763c-0.595,1.604-1.084,3.252-1.515,4.909c-0.254,0.977-0.366,2.002-0.43,3.013
				c-0.072,1.131,0.03,2.273-0.026,3.406c-0.135,2.69,0.553,5.239,1.305,7.771c0.277,0.938,0.816,1.798,1.104,2.734
				c0.299,0.975,0.826,1.788,1.311,2.663c0.827,1.499,1.861,2.791,2.864,4.148c0.754,1.021,1.539,2.02,2.507,2.742
				c1.024,0.764,1.988,1.617,3.036,2.362c1.81,1.285,3.708,2.328,5.764,3.089c1.603,0.595,3.251,1.083,4.906,1.515
				c0.978,0.254,2.004,0.366,3.015,0.43c1.131,0.071,2.273-0.031,3.405,0.026c2.691,0.135,5.239-0.552,7.772-1.304
				c0.938-0.279,1.797-0.817,2.732-1.104c0.975-0.299,1.788-0.827,2.664-1.311c1.499-0.828,2.79-1.861,4.147-2.864
				c1.021-0.754,2.02-1.539,2.742-2.507c0.765-1.024,1.617-1.988,2.361-3.036c1.285-1.809,2.321-3.711,3.095-5.762
				c1.016-2.691,1.824-5.445,1.95-8.348C403.152,217.668,403.126,216.958,403.126,216.248z M268.077,121.682
				c0.105-2.657-0.984-5.184-3.069-7.313c-1.917-1.956-4.217-3.02-6.982-3.163c-3.159-0.164-5.854,0.794-8.108,3.009
				c-2.009,1.974-3.092,4.327-3.204,7.179c-0.121,3.086,0.849,5.71,2.981,7.908c1.953,2.014,4.294,3.133,7.158,3.25
				c3.172,0.128,5.837-0.874,8.079-3.092C267,127.415,268.085,124.963,268.077,121.682z M48.401,192.614
				c5.727,0.286,10.348-4.709,10.449-9.994c0.111-5.825-4.779-10.375-9.983-10.503c-5.836-0.143-10.5,4.765-10.559,10.143
				C38.246,187.927,43.044,192.735,48.401,192.614z M334.092,245.963c0.645-3.978-4.342-8.701-7.856-8.178
				c-4.147-0.688-8.859,4.308-8.337,7.909c-0.689,4.024,4.275,8.837,7.962,8.285C329.834,254.658,334.687,249.663,334.092,245.963z
				 M125.248,327.7c3.878,0.553,8.189-4.036,7.708-7.474c0.622-4.016-4.031-8.373-7.527-7.867c-3.931-0.618-8.356,4.036-7.814,7.58
				C117.022,323.828,121.654,328.262,125.248,327.7z M85.654,71.773c0,0.601,0,1.594,0,2.195c0.746,2.322,2.061,3.682,4.643,4.477
				c1.343,0.175,3.209-0.044,4.699-1.511c1.09-1.074,1.742-2.339,1.766-3.958c0.025-1.698-0.61-3.041-1.766-4.173
				c-1.494-1.462-3.358-1.682-4.699-1.507C87.713,68.09,86.399,69.451,85.654,71.773z M112.988,415.484
				c1.603-0.731,2.628-1.875,3.347-3.313c0-0.567,0-1.132,0-1.7c0-0.556,0-1.112,0-1.542c-0.939-1.576-1.568-2.203-3.206-3.247
				c-1.133,0-2.266,0-3.247,0c-1.604,0.732-2.628,1.875-3.311,3.237c0,1.199,0,2.322,0,3.348c0.783,1.436,1.772,2.531,3.329,3.217
				C110.803,415.484,111.865,415.484,112.988,415.484z"/>
			<path fill-rule="evenodd" clip-rule="evenodd" fill="#FEB675" d="M146.165,426.564c0.304-0.934-1.009-1.126-0.903-1.969
				c-1.801-1.863-2.69-4.273-3.738-6.548c-0.987-2.143-1.615-4.447-2.238-6.747c-0.47-1.737-0.745-3.515-1.131-5.257
				c-0.39-1.76-0.068-3.672-0.09-5.518c-0.051-4.309,1.153-8.349,2.397-12.423c1.259-4.126,3.357-7.8,5.838-11.196
				c2.072-2.838,4.489-5.471,7.401-7.602c1.367-0.999,2.637-2.151,4.042-3.125c2.235-1.551,5.473-3.098,8.605-4.427
				c2.138-0.908,4.289-1.659,6.532-2.251c0.961-0.254,1.958-0.411,2.914-0.627c3.158-0.714,6.376-1.166,9.644-0.927
				c0.109,0.008,0.229-0.123,0.469-0.26c-0.485-0.715-0.968-1.425-1.451-2.137c-1.204-1.773-2.493-3.495-3.592-5.331
				c-1.25-2.092-2.364-4.268-3.477-6.438c-1.324-2.58-2.104-5.376-3.094-8.089c-0.798-2.19-1.115-4.507-1.735-6.74
				c-0.538-1.936-0.252-4.031-1.225-5.881c-0.176-0.334-0.025-0.839-0.025-1.265c0-3.692,0.035-7.384-0.018-11.076
				c-0.02-1.389,0.308-2.678,0.716-3.971c0.06-0.188,0.154-0.385,0.146-0.575c-0.061-1.516,0.539-2.911,0.766-4.348
				c0.295-1.872,0.803-3.666,1.417-5.404c1.092-3.088,2.072-6.238,3.779-9.083c0.916-1.526,1.692-3.135,2.578-4.68
				c0.465-0.81,1.008-1.579,1.558-2.335c0.521-0.717,1.218-1.33,1.625-2.101c0.816-1.548,1.977-2.78,3.176-4.013
				c0.961-0.989,1.772-2.125,2.731-3.117c2.523-2.608,5.313-4.879,8.598-6.484c1.772-1.757,4.172-1.909,6.388-2.586
				c1.308-0.4,2.661-0.08,3.865-0.444c1.737-0.526,3.448-0.258,5.167-0.351c0.525-0.028,1.034,0.115,1.573,0.283
				c1.59,0.495,3.278,0.667,4.925,0.985c0.586,0.113,1.154,0.351,1.743,0.407c1.376,0.13,2.644-0.355,3.95-0.721
				c1.405-0.393,2.781-1.012,4.288-0.966c0.692,0.021,1.208-0.528,1.957-0.472c0.708,0.054,1.437-0.277,2.165-0.374
				c0.667-0.09,1.397,0.174,1.963-0.427c0.066-0.071,0.273-0.008,0.415-0.01c3.071-0.027,6.108-0.672,9.197-0.442
				c1.342,0.099,2.7-0.035,4.045,0.035c0.869,0.045,1.725,0.299,2.594,0.398c0.874,0.1,1.718,0.048,2.616,0.364
				c0.981,0.346,2.126,0.209,3.22,0.434c2.285,0.47,4.54,0.965,6.783,1.632c1.32,0.393,2.716,0.684,4.001,1.166
				c3.998,1.503,7.881,3.308,11.601,5.399c2.502,1.407,4.932,2.966,7.196,4.777c1.664,1.331,3.281,2.713,4.936,4.045
				c1.533,1.234,3.038,2.501,4.269,3.992c2.598,3.146,5.463,6.093,7.537,9.734c0.297,0,0.626,0.102,0.828-0.016
				c1.597-0.932,3.343-1.533,5.012-2.301c3.002-1.382,6.114-2.43,9.316-3.218c0.843-0.207,1.86-0.132,2.509-0.593
				c0.814-0.58,1.893,0.26,2.499-0.69c1.029,0.023,2.062,0.067,3.019-0.426c2.103,0.326,4.119-0.523,6.214-0.444
				c2.127,0.081,4.261-0.026,6.389,0.037c1.01,0.03,2.011,0.283,3.02,0.402c0.94,0.111,1.897-0.166,2.831,0.389
				c0.418,0.25,1.117-0.012,1.676,0.06c0.448,0.057,0.876,0.379,1.317,0.389c1.639,0.036,3.129,0.705,4.673,1.096
				c2.482,0.627,4.996,1.318,7.303,2.397c2.195,1.027,4.51,1.793,6.581,3.198c1.671,1.133,3.605,1.957,5.271,3.15
				c1.483,1.063,2.99,2.095,4.437,3.22c2.852,2.218,5.283,4.855,7.742,7.45c2.412,2.546,4.538,5.365,6.212,8.483
				c1.404,2.614,2.922,5.174,4.178,7.856c0.943,2.016,1.563,4.184,2.22,6.321c0.251,0.815,0.819,1.624,0.783,2.415
				c-0.046,1.016,0.333,1.897,0.556,2.792c0.217,0.877,0.124,1.81,0.415,2.588c0.482,1.292,0.272,2.584,0.42,4.025
				c0.902,0,1.808-0.018,2.711,0.005c0.95,0.023,1.874-0.062,2.827,0.373c0.83,0.376,1.946-0.313,2.783,0.474
				c2.959-0.064,5.57,1.219,8.277,2.131c2.379,0.802,4.662,1.776,6.807,3.132c0.921,0.583,1.77,1.448,2.967,1.555
				c0,26.278,0,52.557,0,78.835c-85.369,0-170.739,0-256.108,0c-0.05-0.121-0.067-0.313-0.155-0.354
				c-2.741-1.284-4.692-3.567-6.486-5.804c-1.58-1.969-2.972-4.184-3.905-6.661c-1.218-3.232-2.008-6.516-2.218-9.939
				c-0.093-1.507,0.111-3.006,0.321-4.521c0.214-1.548,0.53-3.048,0.947-4.533c1-3.557,2.694-6.831,5.058-9.6
				c3.022-3.54,6.578-6.452,11.043-8.241c3.358-1.347,6.772-2.014,10.32-2.359c1.974-0.191,3.841,0.564,5.792,0.463
				c0.231-0.012,0.464,0.265,0.714,0.31c1.833,0.334,3.633,0.761,5.221,1.803c1.604-0.026,2.723,1.094,3.894,1.879
				c1.284,0.862,2.702,1.586,3.772,2.788c0.833,0.936,1.831,1.725,2.756,2.577c0.098,0.312,0.126,0.672,0.307,0.925
				c0.691,0.972,1.431,1.91,2.193,2.915c0.09-0.026,0.277-0.082,0.602-0.177c-0.446-0.866-0.925-1.644-1.253-2.48
				c-0.29-0.738-0.715-1.279-1.423-1.608c0-0.213,0.089-0.497-0.014-0.627c-0.726-0.917-1.43-1.865-2.259-2.683
				c-1.386-1.369-2.726-2.769-4.297-3.97c-2.565-1.961-5.332-3.533-8.327-4.608c-3.112-1.117-6.349-1.859-9.716-1.756
				c-2.149,0.066-4.292-0.046-6.436,0.389c-1.05,0.214-2.08,0.47-3.105,0.757c-2.61,0.73-5.126,1.708-7.418,3.168
				c-1.472,0.938-2.987,1.863-4.275,3.025c-3.669,3.311-6.592,7.151-8.512,11.794c-1.133,2.74-1.985,5.556-2.229,8.42
				c-0.308,3.632-0.255,7.312,0.709,10.944c0.667,2.505,1.459,4.971,2.675,7.198c1.524,2.792,3.299,5.494,5.744,7.644
				c0.532,0.468,1.059,0.959,1.496,1.512c0.464,0.587,1.486,0.492,1.646,1.407C157.813,426.564,151.989,426.564,146.165,426.564z
				 M296.326,315.342c0.763,0,1.261,0,1.758,0c2.088-0.964,4.237-1.777,6.399-2.552c2.041-0.732,4.059-1.58,6.156-2.093
				c2.2-0.538,4.215-1.513,6.289-2.322c4.246-1.657,6.884-2.435,11.219-3.26c1.069-0.777,2.403-0.051,3.418-0.49
				c1.257-0.542,2.464-0.283,3.687-0.342c1.406-0.068,2.94-0.313,4.2,0.135c1.403,0.499,2.927-0.247,4.18,0.697
				c2.127-0.05,3.961,1.237,6.058,1.321c2.505,1.461,5.338,2.175,7.845,3.724c3.132,1.936,5.991,4.178,8.772,6.539
				c1.521,1.29,2.578,3.015,3.802,4.584c2.264,2.907,4.244,5.958,5.565,9.419c0.632,1.655,1.395,3.26,1.886,4.97
				c0.496,1.725,1.002,3.496,1.176,5.233c0.162,1.638,0.598,3.26,0.536,4.927c-0.045,1.206-0.026,2.415,0,3.621
				c0.01,0.464,0.069,0.895,0.259,1.38c0.739,1.9,1.297,3.884,1.802,5.849c0.662,2.574,1.54,5.037,2.618,7.447
				c0.166,0.371,0.388,0.717,0.719,1.323c0.559-1.35,1.081-2.353,1.392-3.417c0.649-2.228,1.313-4.444,1.821-6.723
				c0.499-2.238,0.72-4.504,1.146-6.743c0.209-1.096,0.036-2.265,0.036-3.401c0-1.065,0.03-2.132-0.008-3.195
				c-0.04-1.087,0.009-2.144-0.338-3.258c-0.306-0.986-0.323-2.138-0.451-3.214c-0.266-2.211-0.852-4.349-1.521-6.421
				c-1.189-3.684-2.329-6.158-4.834-10.575c-1.897-3.349-4.313-6.225-6.749-9.103c-1.524-1.799-3.457-3.25-5.205-4.856
				c-0.103-0.095-0.193-0.211-0.311-0.28c-1.949-1.156-3.745-2.536-5.714-3.675c-2.752-1.592-5.54-3.042-8.575-4
				c-2.152-0.679-4.207-1.721-6.538-1.703c-0.868-0.829-2.064-0.498-3.08-0.761c-1.008-0.261-2.147-0.477-3.208-0.478
				c-4.439-0.007-8.908-0.396-13.287,0.792c-1.04,0.282-2.173,0.21-3.221,0.473c-1.088,0.273-2.189,0.575-3.242,0.917
				c-4.265,1.388-8.291,3.349-12.13,5.673c-2.75,1.665-5.154,3.8-7.549,5.907c-1.827,1.607-3.375,3.537-4.991,5.372
				c-0.613,0.695-1.073,1.525-1.476,2.598c-0.028-0.028-0.055-0.056-0.083-0.083c-0.116,0.099-0.232,0.198-0.348,0.297
				c0.045,0.045,0.09,0.09,0.135,0.134C296.438,315.613,296.538,315.497,296.326,315.342z M210.796,388.638
				c-0.047,0-0.095,0-0.142,0c0,0.142,0,0.285,0,0.426c0.047,0,0.095,0,0.142,0C210.796,388.922,210.796,388.78,210.796,388.638z"/>
			<path fill-rule="evenodd" clip-rule="evenodd" fill="#FEB775" d="M426.563,84.801c-0.505,0.151-1.119,0.167-1.499,0.474
				c-2.17,1.753-4.799,2.467-7.351,3.356c-1.615,0.562-3.253,1.058-4.879,1.591c-0.966,0.317-2.082-0.193-2.969,0.545
				c-2.019-0.123-3.967,0.722-6,0.435c-0.419-0.059-0.852-0.002-1.277-0.009c-1.339-0.023-2.811,0.289-3.979-0.171
				c-1.197-0.472-2.536,0.296-3.549-0.68c-1.856,0.063-3.555-0.521-5.272-1.154c-1.601-0.59-3.218-1.133-4.813-1.74
				c-1.576-0.598-2.967-1.422-4.419-2.202c-1.478-0.793-2.841-1.734-4.233-2.659c-2.946-1.956-5.37-4.453-7.705-7.016
				c-1.924-2.112-3.715-4.39-5.008-7.21c-0.441,0.407-0.789,0.639-1.022,0.957c-1.639,2.238-3.416,4.356-5.431,6.267
				c-2.629,2.493-5.502,4.674-8.527,6.662c-1.992,1.309-4.061,2.455-6.233,3.459c-3.483,1.611-6.976,3.127-10.785,3.798
				c-0.772,0.136-1.558,0.362-2.257,0.709c-0.845,0.42-1.732-0.134-2.628,0.365c-0.655,0.365-1.677-0.003-2.461,0.218
				c-2.764,0.779-5.569,0.252-8.351,0.384c-1.087,0.052-2.154,0.033-3.248-0.361c-0.995-0.359-2.218,0.274-3.214-0.476
				c-2.349,0.159-4.46-0.918-6.706-1.316c-1.478-0.261-2.945-0.758-4.323-1.365c-2.524-1.111-5.019-2.305-7.448-3.609
				c-2.3-1.235-4.43-2.757-6.518-4.334c-2.326-1.758-4.587-3.589-6.559-5.74c-2.799-3.054-5.334-6.313-7.394-9.924
				c-0.102-0.179-0.295-0.305-0.59-0.6c-0.713,0.886-1.359,1.808-2.126,2.613c-1.567,1.644-3.083,3.37-4.838,4.793
				c-2.129,1.727-4.209,3.565-6.761,4.72c-1.02,0.461-1.949,1.117-2.945,1.635c-1.928,1.002-6.884,2.767-9.469,3.389
				c-0.883,0.212-1.824,0.105-2.581,0.425c-0.894,0.377-1.794,0.145-2.607,0.399c-1.993,0.625-4.008,0.336-6.012,0.374
				c-1.247,0.023-2.554,0.076-3.728-0.256c-1.124-0.319-2.382,0.308-3.374-0.578c-3.581-0.218-6.858-1.453-10.063-2.96
				c-0.525-0.248-1.146-0.294-1.805-0.454c-0.067,0.398-0.133,0.789-0.217,1.283c-2.684,0-5.367,0.024-8.05-0.02
				c-0.583-0.009-1.167-0.243-1.74-0.411c-2.095-0.615-4.277-0.851-6.335-1.669c-2.331-0.928-4.593-1.92-6.792-3.163
				c-3.855-2.179-6.994-5.158-9.925-8.362c-1.66-1.815-3-3.914-4.186-6.121c-0.813-1.512-1.605-3.027-2.324-4.582
				c-1.028-2.222-1.782-4.566-2.235-6.939c-0.34-1.778-0.969-3.527-0.932-5.384c0.039-1.916,0.009-3.833,0.009-5.75
				c0-0.994,0-1.988,0-2.981c0.97-0.654-0.093-1.967,0.852-2.629c-0.013-2.396,0.918-4.571,1.746-6.732
				c0.7-1.83,1.221-3.781,2.715-5.509c-1.358-0.396-2.565-0.85-3.814-1.086c-1.704-0.324-3.298-0.959-4.906-1.542
				c-2.038-0.738-3.975-1.718-5.9-2.726c-2.377-1.244-4.559-2.767-6.728-4.324c-2.296-1.648-4.162-3.751-6.128-5.744
				c-0.805-0.817-1.424-1.817-2.127-2.733c5.824,0,11.648,0,17.472,0c1.923,1.485,4,2.631,6.267,3.578
				c3.597,1.501,7.257,2.338,11.142,2.405c2.905,0.051,5.768-0.139,8.585-0.87c1.251-0.121,2.466-0.337,3.404-1.444
				c0-0.042,0.007,0.081,0.013,0.203c0.278-0.055,0.556-0.109,0.833-0.163c-0.013-0.091-0.025-0.184-0.038-0.275
				c-0.271,0.023-0.543,0.046-0.809,0.235c-0.54,0.166-1.086,0.175-1.631,0.163c-0.739-0.016-1.36,0.198-1.772,0.855
				c-2.56-0.154-5.121,0.21-7.697-0.36c-1.491-0.329-3.034-0.532-4.514-0.937c-2.586-0.707-4.854-1.87-6.965-3.391
				c85.228,0,170.455,0,255.682,0c0,20.881,0,41.761,0,62.642c-1.604-0.402-3.206-0.804-4.945-1.24
				c-5.638,5.133-12.428,8.088-20.156,8.432c-7.709,0.343-14.637-2.061-20.787-6.81c-6.191-4.781-9.69-11.155-11.552-18.617
				c0.13,2.153-0.169,4.252,0.229,6.428c0.364,1.983,0.9,3.9,1.404,5.831c0.565,2.161,2.197,5.28,3.427,7.094
				c0.96,1.417,2.179,2.666,3.087,4.059c1.266,1.943,3.427,2.789,4.723,4.585c2.295,1.169,4.258,2.928,6.741,3.765
				c1.555,0.524,3.089,1.109,4.639,1.645c1.588,0.549,3.298,0.862,4.903,0.929c2.762,0.115,5.54,0.276,8.351-0.236
				c1.984-0.361,3.934-0.796,5.827-1.409c2.571-0.832,4.98-2.023,7.282-3.504c2.127-1.369,3.871-3.192,5.954-4.56
				c0.306,0,0.59,0,0.873,0C426.563,74.574,426.563,79.688,426.563,84.801z M354.359,36.979c-0.231,0.716-0.597,1.381-0.634,2.064
				c-0.072,1.365-0.525,2.624-0.899,3.898c-1.13,3.858-2.266,6.076-4.563,9.608c-0.781,1.202-1.739,2.263-2.538,3.426
				c-1.762,2.563-4.145,4.411-6.57,6.227c-1.376,1.031-2.937,1.802-4.401,2.688c-1.451,0.878-2.957,1.445-4.502,2.017
				c-2.122,0.787-4.216,1.671-6.533,1.701c-0.66,0.95-1.976-0.12-2.628,0.853c-0.994,0-1.987,0-2.981,0c-1.206,0-2.412,0-3.619,0
				c-0.355,0-0.797,0.137-1.049-0.024c-1.017-0.645-2.205-0.484-3.291-0.794c-1.016-0.29-2.053-0.504-3.075-0.803
				c-2.794-0.817-5.462-1.838-8.012-3.297c-2.66-1.522-5.126-3.257-7.359-5.326c-1.166-1.081-2.274-2.215-3.21-3.547
				c-1.346-1.917-2.929-3.664-3.855-5.864c-0.157-0.372-0.602-0.623-0.852-0.868c-1.65,2.115-3.188,4.086-4.748,6.083
				c0.103,0.292,0.156,0.561,0.285,0.786c1.655,2.886,3.699,5.498,5.883,7.987c1.876,2.137,4.124,3.875,6.378,5.617
				c3.457,2.67,7.263,4.601,11.359,6.008c2.131,0.732,4.251,1.428,6.513,1.813c1.729,0.294,3.41,0.801,5.198,0.762
				c1.986-0.043,3.992-0.178,5.957,0.032c2.541,0.271,4.871-0.67,7.301-0.984c1.311-0.17,2.663-0.697,3.957-1.187
				c1.288-0.487,2.611-0.893,3.867-1.452c4.767-2.122,9.043-4.998,12.841-8.571c1.865-1.755,3.504-3.7,5.013-5.785
				c1.026-1.418,2.096-2.813,2.946-4.331c1.606-2.867,2.903-5.901,3.879-9.029c0.48-1.542,1.251-3.134,0.882-4.811
				c-1.082-0.98-2.398-1.378-3.527-2.083C356.517,39.007,355.821,37.629,354.359,36.979z"/>
			<path fill-rule="evenodd" clip-rule="evenodd" fill="#FEB775" d="M37.926,0.426c0.491,0.745,0.958,1.518,1.932,1.719
				c1.577,1.788,3.574,3.176,4.898,5.211c0.555,0.853,1.211,1.649,1.887,2.413c1.927,2.175,3.099,4.801,4.526,7.284
				c1.063,1.848,1.315,4.016,2.523,5.777c-0.065,1.117,0.49,2.054,0.813,3.069c0.323,1.02,0.223,2.168,0.495,3.211
				c0.262,1.005,0.243,2.044,0.466,3.011c0.219,0.948,0.354,1.866,0.357,2.822c0.002,1.065,0,2.13,0,3.195
				c0,0.994,0.127,2.008-0.025,2.979c-0.354,2.255-0.647,4.52-1.079,6.767c-0.303,1.58-1.138,3.051-1.026,4.71
				c-1.113,1.447-1.218,3.315-2.092,4.891c-1.252,2.258-2.296,4.626-3.865,6.705c-0.52,0.689-0.844,1.538-1.416,2.172
				c-2.016,2.239-3.93,4.616-6.2,6.57c-3.286,2.828-6.939,5.175-10.993,6.838c-2.083,0.854-4.213,1.49-6.375,2.114
				c-4.329,1.248-8.711,1.258-13.123,1.196c-0.724-0.01-1.442-0.279-2.168-0.404c-0.726-0.124-1.477,0.217-2.205-0.382
				c-0.337-0.277-1.091-0.047-1.636-0.047c-0.929,0.948-1.878,1.816-3.194,2.131c0-4.972,0-9.943,0-14.915
				c0.213,0,0.47-0.079,0.632,0.012c2.099,1.181,4.485,1.455,6.757,1.602c2.681,0.173,5.407,0.357,8.139-0.255
				c1.424-0.319,2.899-0.532,4.309-0.945c5.35-1.566,9.999-4.377,14.075-8.145c0.695-0.643,1.14-1.558,1.836-2.2
				c1.276-1.178,2.17-2.646,2.987-4.103c1.509-2.688,2.79-5.493,3.658-8.489c0.467-1.613,0.739-3.271,0.987-4.886
				c0.341-2.219,0.064-4.529,0.1-6.8c0.009-0.58-0.391-1.076-0.39-1.526c0.008-2.073-0.691-3.957-1.341-5.854
				c-0.9-2.625-2.088-5.112-3.612-7.449c-0.822-1.261-1.873-2.36-2.663-3.591c-1.283-1.998-3.405-3.005-4.873-4.735
				c-0.135-0.159-0.509-0.115-0.792-0.142c0.009-0.006,0.037-0.034,0.064-0.062c-0.099-0.116-0.198-0.232-0.297-0.347
				c-0.045,0.044-0.09,0.089-0.134,0.134c0.116,0.099,0.232,0.198,0.367,0.275c-0.064,0.988,0.814,1.517,1.262,2.216
				c1.431,2.233,2.624,4.547,3.603,7.021c0.989,2.499,1.578,5.11,1.869,7.697c0.273,2.434,0.398,4.969-0.263,7.48
				c-0.471,1.789-0.751,3.625-1.305,5.417c-1.368,4.427-3.783,8.207-6.812,11.631c-1.006,1.138-2.196,2.093-3.388,3.055
				c-1.371,1.106-2.789,2.12-4.323,2.949c-2.852,1.542-5.786,2.778-9.066,3.306c-1.94,0.312-3.835,0.832-5.825,0.771
				c-0.92-0.027-1.847,0.051-2.762-0.02c-0.939-0.072-1.868-0.269-2.801-0.411c0-20.881,0-41.761,0-62.642
				C12.926,0.426,25.426,0.426,37.926,0.426z"/>
			<path fill-rule="evenodd" clip-rule="evenodd" fill="#FEB775" d="M426.563,164.916c-1.705,0.276-3.206,1.305-4.974,1.352
				c-0.485,0.64-1.183,0.226-1.769,0.355c-0.583,0.129-1.157,0.388-1.74,0.404c-1.914,0.052-3.871,0.255-5.732-0.061
				c-1.295-0.22-2.635-0.342-3.936-0.709c-1.209-0.341-2.387-0.772-3.577-1.152c-2.946-0.938-5.465-2.639-7.951-4.46
				c-3.842-2.814-6.397-6.588-8.506-10.724c-0.813-1.595-2.039-6.109-2.391-8.183c-0.283-1.669-0.283-3.299-0.321-4.948
				c-0.078-3.414,0.82-6.642,1.926-9.838c1.015-2.932,2.682-5.45,4.495-7.939c2.806-3.852,6.586-6.414,10.729-8.494
				c1.752-0.879,3.684-1.391,5.605-1.889c1.507-0.391,3.036-0.595,4.557-0.774c1.608-0.191,3.28-0.215,4.885-0.005
				c2.696,0.353,5.389,0.828,7.915,1.935c0.238,0.105,0.522,0.107,0.785,0.157C426.563,128.268,426.563,146.591,426.563,164.916z"/>
			<path fill-rule="evenodd" clip-rule="evenodd" fill="#FEB775" d="M0.426,348.154c0.957,0.603,2.012,1.094,2.853,1.829
				c2.107,1.841,4.273,3.653,6.125,5.735c2.147,2.413,4.109,5.039,5.706,7.847c1.225,2.152,2.386,4.372,3.263,6.732
				c0.618,1.664,1.292,3.303,1.762,5.019c0.227,0.826,0.61,1.625,0.71,2.463c0.083,0.682,0.194,1.307,0.424,1.961
				c0.216,0.611-0.151,1.39,0.459,1.944c0.036,0.032-0.004,0.139,0.006,0.208c0.315,2.283,0.799,10.027,0.37,11.948
				c-0.499,2.23-0.608,4.506-1.124,6.745c-0.643,2.794-1.479,5.474-2.459,8.154c-0.796,2.18-1.968,4.154-2.93,6.24
				c-0.524,1.134-1.337,2.136-2.065,3.267c0.267,0.094,0.444,0.208,0.623,0.211c0.922,0.02,1.92-0.21,2.747,0.071
				c0.814,0.277,1.59,0.296,2.398,0.376c0.869,0.087,1.941,0.005,2.539,0.481c0.734,0.585,1.749-0.084,2.256,0.785
				c4.375,0.818,8.997,3.412,11.653,5.279c0.473,0.333,1.22,0.346,1.331,1.113c-12.215,0-24.432,0-36.647,0
				C0.426,400.427,0.426,374.291,0.426,348.154z"/>
			<path fill-rule="evenodd" clip-rule="evenodd" fill="#FEB776" d="M0.426,110.37c1.522-0.12,2.681,0.839,3.812,1.548
				c2.427,1.522,4.846,3.129,6.708,5.367c2.351,2.826,4.4,5.808,5.755,9.305c0.648,1.674,1.184,3.397,1.521,5.085
				c0.398,1.993,0.6,4.08,0.588,6.18c-0.016,3.033-0.603,5.976-1.436,8.794c-0.751,2.541-1.934,5.036-3.565,7.226
				c-1.312,1.761-2.556,3.573-4.201,5.065c-2.404,2.18-5.066,3.968-7.977,5.384c-0.347,0.169-0.801,0.115-1.206,0.165
				C0.426,146.45,0.426,128.409,0.426,110.37z"/>
			<path fill-rule="evenodd" clip-rule="evenodd" fill="#FEFDFB" d="M30.256,11.932c0.263,0.05,0.638,0.005,0.772,0.165
				c1.468,1.73,3.59,2.737,4.873,4.735c0.791,1.231,1.841,2.33,2.663,3.591c1.523,2.337,2.712,4.824,3.612,7.449
				c0.649,1.896,1.349,3.781,1.341,5.854c-0.001,0.45,0.399,0.946,0.39,1.526c-0.036,2.271,0.241,4.581-0.1,6.8
				c-0.249,1.615-0.52,3.273-0.987,4.886c-0.868,2.996-2.149,5.802-3.658,8.489c-0.817,1.456-1.711,2.925-2.987,4.103
				c-0.696,0.643-1.141,1.557-1.836,2.2c-4.076,3.768-8.725,6.579-14.075,8.145c-1.41,0.413-2.885,0.626-4.309,0.945
				c-2.732,0.612-5.458,0.428-8.139,0.255c-2.272-0.147-4.658-0.421-6.757-1.602c-0.162-0.091-0.419-0.012-0.632-0.012
				c0-2.131,0-4.261,0-6.392c0.933,0.142,1.862,0.338,2.801,0.411c0.916,0.071,1.842-0.007,2.762,0.02
				c1.99,0.06,3.885-0.459,5.825-0.771c3.28-0.528,6.214-1.764,9.066-3.306c1.534-0.83,2.952-1.843,4.323-2.949
				c1.192-0.962,2.382-1.917,3.388-3.055c3.028-3.425,5.444-7.204,6.812-11.631c0.553-1.792,0.833-3.628,1.305-5.417
				c0.661-2.511,0.536-5.046,0.263-7.48c-0.291-2.587-0.879-5.198-1.869-7.697c-0.979-2.474-2.172-4.788-3.603-7.021
				C31.05,13.471,30.172,12.943,30.256,11.932z"/>
			<path fill-rule="evenodd" clip-rule="evenodd" fill="#FEFCFA" d="M207.529,384.375c-0.925-0.853-1.923-1.642-2.756-2.577
				c-1.071-1.202-2.488-1.926-3.772-2.788c-1.171-0.785-2.29-1.905-3.894-1.879c-1.588-1.042-3.387-1.469-5.221-1.803
				c-0.25-0.045-0.482-0.322-0.714-0.31c-1.951,0.101-3.818-0.655-5.792-0.463c-3.548,0.345-6.962,1.012-10.32,2.359
				c-4.465,1.789-8.021,4.701-11.043,8.241c-2.364,2.769-4.059,6.043-5.058,9.6c-0.417,1.485-0.733,2.984-0.947,4.533
				c-0.21,1.514-0.414,3.014-0.321,4.521c0.21,3.423,1,6.707,2.218,9.939c0.933,2.477,2.325,4.692,3.905,6.661
				c1.794,2.236,3.746,4.52,6.486,5.804c0.088,0.041,0.105,0.232,0.155,0.354c-2.272,0-4.545,0-6.818,0
				c-0.16-0.915-1.182-0.82-1.646-1.407c-0.437-0.553-0.964-1.044-1.496-1.512c-2.445-2.15-4.22-4.852-5.744-7.644
				c-1.216-2.227-2.008-4.693-2.675-7.198c-0.965-3.633-1.018-7.312-0.709-10.944c0.243-2.865,1.095-5.68,2.229-8.42
				c1.92-4.643,4.843-8.483,8.512-11.794c1.288-1.163,2.804-2.087,4.275-3.025c2.292-1.46,4.808-2.438,7.418-3.168
				c1.025-0.287,2.055-0.542,3.105-0.757c2.144-0.435,4.287-0.323,6.436-0.389c3.367-0.103,6.604,0.639,9.716,1.756
				c2.996,1.075,5.762,2.647,8.327,4.608c1.572,1.201,2.912,2.602,4.297,3.97c0.829,0.818,1.533,1.766,2.259,2.683
				c0.104,0.13,0.014,0.414,0.014,0.627C207.813,384.092,207.671,384.234,207.529,384.375z"/>
			<path fill-rule="evenodd" clip-rule="evenodd" fill="#FEFCFB" d="M426.563,69.46c-0.283,0-0.567,0-0.873,0
				c-2.083,1.367-3.827,3.19-5.954,4.56c-2.302,1.481-4.711,2.673-7.282,3.504c-1.894,0.613-3.843,1.047-5.827,1.409
				c-2.811,0.512-5.589,0.352-8.351,0.236c-1.605-0.067-3.315-0.38-4.903-0.929c-1.55-0.536-3.084-1.12-4.639-1.645
				c-2.483-0.837-4.446-2.596-6.741-3.765c-1.296-1.796-3.457-2.643-4.723-4.585c-0.908-1.394-2.127-2.643-3.087-4.059
				c-1.229-1.814-2.861-4.933-3.427-7.094c-0.504-1.931-1.04-3.848-1.404-5.831c-0.398-2.175-0.1-4.274-0.229-6.428
				c1.861,7.462,5.36,13.836,11.552,18.617c6.15,4.75,13.078,7.153,20.787,6.81c7.729-0.344,14.519-3.299,20.156-8.432
				c1.739,0.436,3.342,0.838,4.945,1.24C426.563,65.199,426.563,67.33,426.563,69.46z"/>
			<path fill-rule="evenodd" clip-rule="evenodd" fill="#FEFAF7" d="M170.881,0.426c2.11,1.521,4.379,2.684,6.965,3.391
				c1.48,0.404,3.023,0.607,4.514,0.937c2.577,0.57,5.137,0.206,7.697,0.36c0,0.142,0,0.284,0,0.426
				c-2.817,0.731-5.68,0.921-8.585,0.87c-3.885-0.067-7.545-0.904-11.142-2.405c-2.267-0.947-4.344-2.093-6.267-3.578
				C166.336,0.426,168.608,0.426,170.881,0.426z"/>
			<path fill-rule="evenodd" clip-rule="evenodd" fill="#FEB877" d="M139.21,244.603c-1.635,0-2.771,0-3.907,0
				c-0.994,0-1.989,0-2.982,0c-0.653-0.972-1.968,0.097-2.629-0.853c-2.897-0.17-5.574-1.19-8.279-2.123
				c-3.319-1.145-6.458-2.65-9.4-4.556c-1.799-1.165-3.558-2.392-5.318-3.615c-0.344-0.239-0.608-0.594-0.91-0.895
				c-1.606-1.606-3.244-3.183-4.812-4.827c-2.159-2.262-3.948-4.792-5.565-7.48c-0.925-1.539-1.673-3.147-2.518-4.715
				c-1.475-2.738-2.12-5.794-3.368-8.616c0.144-2.003-1.154-3.788-0.886-5.811c-0.89-3.675-0.251-7.409-0.415-11.112
				c-0.104-2.334,0.432-4.623,0.911-6.874c0.246-1.157,0.279-2.424,0.819-3.477c0.55-1.074,0.8-2.229,1.217-3.333
				c1.098-2.903,2.477-5.652,3.963-8.376c1.231-2.256,2.977-4.125,4.277-6.313c0.281-0.473,0.808-0.794,1.182-1.22
				c0.633-0.718,1.451-1.248,1.853-2.211c0.228-0.546,0.798-1.172,1.331-1.311c0.722-0.188,1.007-0.729,1.456-1.125
				c2.285-2.024,4.724-3.803,7.346-5.394c1.479-0.897,3.011-1.677,4.531-2.466c2.509-1.303,5.204-2.212,7.917-2.979
				c2.051-0.58,4.163-0.971,6.263-1.386c2.167-0.429,4.295-0.279,6.441-0.339c2.128-0.06,4.272-0.153,6.385,0.039
				c1.307,0.118,2.635,0.387,3.945,0.689c1.359,0.314,2.729,0.646,4.098,0.9c1.131,0.211,2.192,0.581,3.245,0.946
				c1.918,0.665,3.828,1.405,5.641,2.314c2.797,1.403,5.429,3.089,7.982,4.92c3.082,2.21,5.894,4.737,8.318,7.594
				c3.365,3.969,6.112,8.395,8.18,13.205c0.99,2.303,1.799,4.665,2.408,7.097c0.18,0.717,0.447,1.386,0.469,2.167
				c0.021,0.708,0.525,1.382,0.39,2.169c-0.046,0.266-0.071,0.614,0.06,0.817c0.96,1.492,0.776,3.156,0.78,4.792
				c0.007,2.485,0.007,4.97,0,7.455c-0.002,0.885,0.078,1.768-0.413,2.599c-0.706,1.194-0.514,2.613-0.795,3.915
				c-0.506,2.342-1.163,4.637-1.948,6.877c-0.689,1.973-1.703,3.842-2.679,5.702c-1.619,3.085-3.469,6.012-5.662,8.75
				c-1.188,1.483-2.496,2.817-3.825,4.141c-1.892,1.885-4.012,3.482-6.193,5.042c-2.239,1.601-4.521,3.1-6.982,4.276
				c-3.386,1.618-6.851,3.068-10.593,3.746c-1.516,0.275-3.063,0.519-4.531,0.901C143.558,244.888,141.129,244.32,139.21,244.603z
				 M179.906,194.073c-0.223-2.002-0.133-3.496-0.397-5.027c-0.309-1.789-0.546-3.606-0.976-5.375
				c-0.513-2.109-1.036-4.201-2.028-6.19c-0.705-1.412-1.347-2.844-2.135-4.228c-1.387-2.438-3.338-5.418-4.851-6.931
				c-1.255-1.255-2.515-2.507-3.765-3.768c-1.111-1.121-2.392-2.003-3.693-2.891c-1.38-0.94-2.869-1.687-4.249-2.585
				c-1.644-1.071-3.43-1.694-5.208-2.37c-2.24-0.853-4.527-1.59-6.955-1.725c-0.919-0.752-2.143-0.046-2.984-0.49
				c-1.051-0.554-2.044-0.291-3.053-0.344c-2.9-0.151-5.747,0.231-8.601,0.785c-1.708,0.333-3.356,0.815-5.028,1.25
				c-2.641,0.686-5.033,1.902-7.429,3.159c-2.206,1.158-4.33,2.497-6.141,4.134c-2.994,2.705-5.979,5.481-8.171,8.939
				c-1.1,1.735-2.341,3.434-3.086,5.321c-0.457,1.157-1.139,2.224-1.455,3.448c-0.329,1.273-0.893,2.489-1.166,3.77
				c-0.592,2.769-1.166,5.549-1.362,8.382c-0.078,1.131-0.035,2.272-0.006,3.407c0.026,1.019,0.036,2.004,0.34,3.042
				c0.292,0.998,0.271,2.135,0.457,3.216c0.284,1.652,0.714,3.256,1.167,4.855c0.755,2.668,1.95,5.151,3.273,7.591
				c1.188,2.188,2.488,4.335,4.139,6.138c2.677,2.923,5.36,5.902,8.788,8.022c1.748,1.081,3.438,2.319,5.313,3.114
				c2.29,0.971,4.588,1.928,7.052,2.548c2.68,0.675,5.383,1.219,8.092,1.447c2.318,0.195,4.688,0.21,7.077-0.242
				c1.842-0.348,3.743-0.571,5.586-0.978c1.927-0.426,3.871-0.897,5.651-1.768c1.537-0.75,3.088-1.468,4.585-2.327
				c2.535-1.455,4.939-3.037,7.06-5.035c1.343-1.266,2.614-2.607,3.924-3.907c1.021-1.014,1.73-2.26,2.591-3.39
				c2.032-2.668,3.478-5.636,4.768-8.686c1.22-2.884,1.784-5.971,2.345-9.032C179.721,197.46,179.77,195.511,179.906,194.073z"/>
			<path fill-rule="evenodd" clip-rule="evenodd" fill="#FEB775" d="M61.884,290.012c-0.25,3.706-0.827,7.027-2.533,10.114
				c-1.795,3.249-4.204,5.901-7.265,7.953c-1.033,0.692-2.269,1.081-3.301,1.773c-1.04,0.698-2.261,0.74-3.376,1.105
				c-0.85,0.279-1.834,0.454-2.763,0.52c-1.483,0.107-3.027,0.267-4.46-0.022c-2.706-0.547-5.47-0.964-7.908-2.488
				c-3.062-1.913-5.759-4.169-7.693-7.258c-0.912-1.457-1.889-2.874-2.268-4.602c-0.168-0.768-0.544-1.492-0.696-2.261
				c-0.211-1.063-0.36-2.147-0.428-3.229c-0.072-1.132-0.175-2.298,0.016-3.401c0.462-2.671,0.919-5.361,2.273-7.784
				c1.836-3.283,4.251-6.044,7.398-8.114c1.04-0.684,2.271-1.079,3.303-1.771c1.04-0.699,2.261-0.74,3.376-1.106
				c0.85-0.279,1.834-0.453,2.763-0.52c1.483-0.107,3.028-0.267,4.46,0.022c2.706,0.547,5.47,0.964,7.908,2.488
				c3.062,1.914,5.759,4.169,7.693,7.259c0.912,1.457,1.889,2.874,2.268,4.601c0.168,0.768,0.569,1.49,0.693,2.261
				C61.595,287.11,61.729,288.687,61.884,290.012z"/>
			<path fill-rule="evenodd" clip-rule="evenodd" fill="#FEB775" d="M253.301,165.698c6.411,0.176,11.399,2.063,15.446,6.123
				c4.33,4.344,6.361,9.659,6.091,15.77c-0.241,5.45-2.285,10.194-6.221,14.014c-4.34,4.211-9.605,6.189-15.633,5.903
				c-5.448-0.259-10.191-2.296-14.001-6.255c-4.195-4.359-6.083-9.623-5.888-15.653c0.018-0.567-0.184-1.226,0.039-1.686
				c0.626-1.298,0.456-2.764,1.006-4.056c0.54-1.267,0.948-2.625,1.69-3.762c1.003-1.537,2.242-2.924,3.439-4.326
				c0.438-0.513,1.061-0.861,1.571-1.318c1.311-1.171,2.777-2.116,4.34-2.891c0.818-0.405,1.702-0.762,2.594-0.915
				C249.844,166.292,251.856,165.484,253.301,165.698z"/>
			<path fill-rule="evenodd" clip-rule="evenodd" fill="#FEB777" d="M403.126,216.248c0,0.71,0.026,1.421-0.005,2.13
				c-0.126,2.903-0.935,5.657-1.95,8.348c-0.773,2.05-1.81,3.953-3.095,5.762c-0.744,1.048-1.597,2.011-2.361,3.036
				c-0.723,0.968-1.722,1.752-2.742,2.507c-1.357,1.003-2.648,2.036-4.147,2.864c-0.876,0.484-1.689,1.011-2.664,1.311
				c-0.936,0.287-1.795,0.825-2.732,1.104c-2.533,0.752-5.081,1.438-7.772,1.304c-1.132-0.057-2.274,0.045-3.405-0.026
				c-1.011-0.063-2.037-0.176-3.015-0.43c-1.655-0.432-3.304-0.919-4.906-1.515c-2.056-0.761-3.954-1.804-5.764-3.089
				c-1.048-0.745-2.012-1.598-3.036-2.362c-0.968-0.722-1.753-1.721-2.507-2.742c-1.003-1.357-2.037-2.649-2.864-4.148
				c-0.484-0.875-1.012-1.688-1.311-2.663c-0.287-0.936-0.826-1.795-1.104-2.734c-0.752-2.532-1.439-5.081-1.305-7.771
				c0.057-1.133-0.046-2.275,0.026-3.406c0.063-1.011,0.176-2.037,0.43-3.013c0.431-1.656,0.92-3.305,1.515-4.909
				c0.762-2.054,1.804-3.954,3.089-5.763c0.745-1.048,1.597-2.012,2.361-3.036c0.723-0.968,1.722-1.752,2.743-2.507
				c1.356-1.003,2.647-2.037,4.147-2.865c0.874-0.483,1.688-1.011,2.663-1.31c0.936-0.288,1.796-0.825,2.733-1.104
				c2.532-0.752,5.081-1.439,7.771-1.304c1.133,0.057,2.274-0.045,3.406,0.026c1.011,0.064,2.036,0.176,3.014,0.43
				c1.655,0.431,3.304,0.92,4.907,1.514c2.055,0.762,3.954,1.805,5.763,3.09c1.049,0.745,2.012,1.597,3.036,2.362
				c0.968,0.722,1.753,1.721,2.507,2.741c1.004,1.357,2.036,2.65,2.864,4.148c0.484,0.875,1.012,1.688,1.311,2.663
				c0.288,0.936,0.732,1.824,1.122,2.728c0.369,0.853,0.578,1.797,0.727,2.659c0.17,0.992,0.557,1.961,0.552,2.988
				C403.122,214.26,403.126,215.254,403.126,216.248z M374.631,235.73c5.357-0.271,10.048-1.957,13.894-5.715
				c3.776-3.689,5.835-8.196,6.051-13.441c0.228-5.51-1.7-10.304-5.47-14.313c-3.67-3.902-8.255-5.99-13.583-6.21
				c-5.509-0.228-10.305,1.701-14.313,5.47c-3.902,3.67-5.992,8.255-6.208,13.583c-0.227,5.589,1.749,10.43,5.615,14.466
				C364.445,233.566,369.226,235.416,374.631,235.73z"/>
			<path fill-rule="evenodd" clip-rule="evenodd" fill="#FEB776" d="M268.077,121.682c0.008,3.281-1.077,5.732-3.145,7.778
				c-2.242,2.218-4.907,3.22-8.079,3.092c-2.864-0.116-5.205-1.236-7.158-3.25c-2.132-2.197-3.102-4.821-2.981-7.908
				c0.111-2.852,1.194-5.205,3.204-7.179c2.255-2.215,4.95-3.173,8.108-3.009c2.765,0.143,5.065,1.207,6.982,3.163
				C267.093,116.498,268.182,119.025,268.077,121.682z"/>
			<path fill-rule="evenodd" clip-rule="evenodd" fill="#FEB776" d="M48.401,192.614c-5.357,0.121-10.155-4.688-10.093-10.354
				c0.058-5.378,4.723-10.286,10.559-10.143c5.205,0.127,10.095,4.678,9.983,10.503C58.749,187.905,54.127,192.9,48.401,192.614z"/>
			<path fill-rule="evenodd" clip-rule="evenodd" fill="#FEB776" d="M334.092,245.963c0.595,3.7-4.258,8.695-8.231,8.015
				c-3.687,0.552-8.651-4.261-7.962-8.285c-0.522-3.601,4.189-8.596,8.337-7.909C329.75,237.262,334.736,241.985,334.092,245.963z"
				/>
			<path fill-rule="evenodd" clip-rule="evenodd" fill="#FEB877" d="M125.248,327.7c-3.593,0.563-8.225-3.872-7.634-7.761
				c-0.542-3.544,3.883-8.198,7.814-7.58c3.497-0.506,8.149,3.851,7.527,7.867C133.437,323.664,129.125,328.253,125.248,327.7z"/>
			<path fill-rule="evenodd" clip-rule="evenodd" fill="#FEB878" d="M85.654,71.773c0.745-2.322,2.06-3.683,4.643-4.478
				c1.34-0.174,3.205,0.045,4.699,1.507c1.156,1.132,1.792,2.475,1.766,4.173c-0.024,1.619-0.676,2.884-1.766,3.958
				c-1.489,1.467-3.356,1.686-4.699,1.511c-2.582-0.795-3.897-2.155-4.643-4.477C85.654,73.367,85.654,72.374,85.654,71.773z"/>
			<path fill-rule="evenodd" clip-rule="evenodd" fill="#FEB979" d="M112.988,415.484c-1.124,0-2.185,0-3.088,0
				c-1.557-0.686-2.546-1.781-3.329-3.217c0-1.026,0-2.149,0-3.348c0.682-1.362,1.707-2.505,3.311-3.237c0.981,0,2.114,0,3.247,0
				c1.638,1.043,2.267,1.671,3.206,3.247c0,0.43,0,0.986,0,1.542c0,0.567,0,1.133,0,1.7
				C115.616,413.61,114.591,414.753,112.988,415.484z"/>
			<path fill-rule="evenodd" clip-rule="evenodd" fill="#FEFDFC" d="M296.326,315.342c0.713-1.035,1.173-1.865,1.786-2.56
				c1.616-1.834,3.164-3.764,4.991-5.372c2.395-2.107,4.799-4.243,7.549-5.907c3.839-2.324,7.865-4.285,12.13-5.673
				c1.053-0.342,2.154-0.644,3.242-0.917c1.048-0.262,2.181-0.19,3.221-0.473c4.379-1.188,8.848-0.799,13.287-0.792
				c1.061,0.001,2.2,0.217,3.208,0.478c1.016,0.263,2.212-0.068,3.08,0.761c2.331-0.018,4.386,1.024,6.538,1.703
				c3.035,0.958,5.823,2.408,8.575,4c1.969,1.139,3.765,2.519,5.714,3.675c0.117,0.069,0.208,0.186,0.311,0.28
				c1.748,1.606,3.681,3.057,5.205,4.856c2.436,2.878,4.852,5.754,6.749,9.103c2.505,4.417,3.645,6.891,4.834,10.575
				c0.669,2.072,1.255,4.21,1.521,6.421c0.128,1.076,0.146,2.228,0.451,3.214c0.347,1.114,0.298,2.17,0.338,3.258
				c0.038,1.063,0.008,2.13,0.008,3.195c0,1.136,0.173,2.305-0.036,3.401c-0.426,2.239-0.646,4.505-1.146,6.743
				c-0.508,2.278-1.172,4.495-1.821,6.723c-0.311,1.065-0.833,2.067-1.392,3.417c-0.331-0.606-0.553-0.952-0.719-1.323
				c-1.078-2.41-1.956-4.873-2.618-7.447c-0.505-1.965-1.063-3.949-1.802-5.849c-0.189-0.485-0.249-0.916-0.259-1.38
				c-0.026-1.206-0.045-2.415,0-3.621c0.062-1.667-0.374-3.29-0.536-4.927c-0.174-1.737-0.68-3.508-1.176-5.233
				c-0.491-1.71-1.254-3.315-1.886-4.97c-1.321-3.461-3.302-6.512-5.565-9.419c-1.224-1.57-2.281-3.295-3.802-4.584
				c-2.781-2.36-5.641-4.603-8.772-6.539c-2.507-1.549-5.34-2.263-7.845-3.724c-2.097-0.084-3.931-1.371-6.058-1.321
				c-1.253-0.943-2.776-0.198-4.18-0.697c-1.26-0.448-2.794-0.203-4.2-0.135c-1.223,0.059-2.43-0.201-3.687,0.342
				c-1.015,0.439-2.349-0.287-3.418,0.49c-4.335,0.825-6.973,1.603-11.219,3.26c-2.074,0.809-4.089,1.784-6.289,2.322
				c-2.098,0.513-4.115,1.361-6.156,2.093c-2.162,0.775-4.312,1.588-6.399,2.552C297.587,315.342,297.089,315.342,296.326,315.342z"
				/>
			<path fill-rule="evenodd" clip-rule="evenodd" fill="#FEE0C4" d="M207.529,384.375c0.142-0.141,0.284-0.283,0.426-0.425
				c0.708,0.33,1.133,0.87,1.423,1.608c0.328,0.836,0.808,1.614,1.253,2.48c-0.325,0.095-0.512,0.151-0.602,0.177
				c-0.763-1.004-1.502-1.943-2.193-2.915C207.656,385.047,207.627,384.688,207.529,384.375z"/>
			<path fill-rule="evenodd" clip-rule="evenodd" fill="#FEFDFC" d="M296.636,315.38c-0.099,0.116-0.198,0.232-0.296,0.348
				c-0.045-0.044-0.09-0.089-0.135-0.134c0.116-0.099,0.232-0.198,0.348-0.297C296.581,315.325,296.608,315.353,296.636,315.38z"/>
			<path fill-rule="evenodd" clip-rule="evenodd" fill="#FEE0C4" d="M210.796,388.638c0,0.142,0,0.285,0,0.426
				c-0.047,0-0.095,0-0.142,0c0-0.142,0-0.284,0-0.426C210.701,388.638,210.749,388.638,210.796,388.638z"/>
			<path fill-rule="evenodd" clip-rule="evenodd" fill="#FEFCFA" d="M354.359,36.979c1.462,0.651,2.157,2.028,3.411,2.813
				c1.129,0.705,2.445,1.103,3.527,2.083c0.369,1.677-0.401,3.27-0.882,4.811c-0.976,3.128-2.272,6.163-3.879,9.029
				c-0.851,1.518-1.92,2.913-2.946,4.331c-1.509,2.085-3.147,4.03-5.013,5.785c-3.798,3.573-8.074,6.449-12.841,8.571
				c-1.256,0.559-2.579,0.965-3.867,1.452c-1.294,0.49-2.646,1.017-3.957,1.187c-2.43,0.314-4.76,1.255-7.301,0.984
				c-1.965-0.21-3.971-0.076-5.957-0.032c-1.788,0.039-3.47-0.468-5.198-0.762c-2.262-0.385-4.382-1.082-6.513-1.813
				c-4.096-1.407-7.902-3.338-11.359-6.008c-2.255-1.743-4.502-3.48-6.378-5.617c-2.184-2.489-4.228-5.101-5.883-7.987
				c-0.129-0.225-0.183-0.494-0.285-0.786c1.559-1.998,3.097-3.968,4.748-6.083c0.25,0.246,0.695,0.496,0.852,0.868
				c0.926,2.201,2.509,3.947,3.855,5.864c0.936,1.332,2.044,2.466,3.21,3.547c2.233,2.068,4.7,3.804,7.359,5.326
				c2.55,1.459,5.218,2.48,8.012,3.297c1.022,0.299,2.06,0.514,3.075,0.803c1.086,0.31,2.274,0.149,3.291,0.794
				c0.252,0.161,0.693,0.024,1.049,0.024c1.207,0,2.413,0,3.619,0c0.994,0,1.987,0,2.981,0c0.652-0.973,1.968,0.098,2.628-0.853
				c2.317-0.03,4.411-0.914,6.533-1.701c1.545-0.572,3.051-1.139,4.502-2.017c1.465-0.886,3.025-1.657,4.401-2.688
				c2.426-1.816,4.809-3.665,6.57-6.227c0.799-1.163,1.757-2.224,2.538-3.426c2.298-3.532,3.434-5.75,4.563-9.608
				c0.374-1.275,0.827-2.534,0.899-3.898C353.763,38.36,354.128,37.694,354.359,36.979z"/>
			<path fill-rule="evenodd" clip-rule="evenodd" fill="#FEDABA" d="M190.057,5.54c0-0.142,0-0.284,0-0.426
				c0.412-0.657,1.033-0.871,1.772-0.855c0.545,0.012,1.091,0.002,1.637,0.002C192.523,5.203,191.308,5.418,190.057,5.54z"/>
			<path fill-rule="evenodd" clip-rule="evenodd" fill="#FEDABA" d="M193.455,3.931c0.271-0.023,0.543-0.047,0.814-0.07
				c0.013,0.091,0.025,0.184,0.038,0.275c-0.278,0.054-0.555,0.108-0.833,0.163C193.468,4.176,193.461,4.053,193.455,3.931z"/>
			<path fill-rule="evenodd" clip-rule="evenodd" fill="#FEFDFB" d="M30.217,11.977c-0.116-0.099-0.232-0.198-0.348-0.297
				c0.044-0.044,0.089-0.089,0.134-0.134c0.099,0.115,0.198,0.231,0.297,0.347C30.273,11.921,30.245,11.949,30.217,11.977z"/>
			<path fill-rule="evenodd" clip-rule="evenodd" fill="#FEFEFD" d="M179.906,194.073c-0.137,1.438-0.185,3.387-0.533,5.282
				c-0.562,3.062-1.125,6.148-2.345,9.032c-1.29,3.049-2.736,6.018-4.768,8.686c-0.861,1.13-1.57,2.375-2.591,3.39
				c-1.31,1.3-2.581,2.642-3.924,3.907c-2.12,1.998-4.525,3.58-7.06,5.035c-1.497,0.859-3.048,1.577-4.585,2.327
				c-1.78,0.87-3.724,1.342-5.651,1.768c-1.844,0.407-3.744,0.63-5.586,0.978c-2.39,0.452-4.759,0.437-7.077,0.242
				c-2.709-0.228-5.412-0.772-8.092-1.447c-2.463-0.621-4.762-1.577-7.052-2.548c-1.874-0.795-3.565-2.033-5.313-3.114
				c-3.428-2.121-6.111-5.1-8.788-8.022c-1.651-1.803-2.952-3.95-4.139-6.138c-1.324-2.439-2.518-4.922-3.273-7.591
				c-0.453-1.599-0.883-3.204-1.167-4.855c-0.186-1.082-0.165-2.218-0.457-3.216c-0.304-1.038-0.314-2.023-0.34-3.042
				c-0.028-1.135-0.072-2.276,0.006-3.407c0.196-2.833,0.77-5.613,1.362-8.382c0.273-1.281,0.837-2.497,1.166-3.77
				c0.316-1.224,0.998-2.291,1.455-3.448c0.745-1.887,1.987-3.585,3.086-5.321c2.192-3.458,5.177-6.234,8.171-8.939
				c1.812-1.637,3.936-2.977,6.141-4.134c2.396-1.257,4.788-2.473,7.429-3.159c1.672-0.435,3.32-0.917,5.028-1.25
				c2.854-0.554,5.701-0.937,8.601-0.785c1.008,0.053,2.002-0.21,3.053,0.344c0.841,0.444,2.065-0.262,2.984,0.49
				c2.427,0.134,4.715,0.872,6.955,1.725c1.778,0.676,3.564,1.299,5.208,2.37c1.38,0.898,2.868,1.645,4.249,2.585
				c1.302,0.888,2.583,1.771,3.693,2.891c1.25,1.261,2.51,2.513,3.765,3.768c1.513,1.513,3.464,4.493,4.851,6.931
				c0.788,1.383,1.431,2.816,2.135,4.228c0.993,1.989,1.516,4.081,2.028,6.19c0.43,1.769,0.667,3.586,0.976,5.375
				C179.773,190.577,179.683,192.071,179.906,194.073z"/>
			<path fill-rule="evenodd" clip-rule="evenodd" fill="#FEFEFD" d="M374.631,235.73c-5.405-0.314-10.186-2.164-14.014-6.16
				c-3.866-4.036-5.842-8.876-5.615-14.466c0.216-5.327,2.306-9.912,6.208-13.583c4.008-3.77,8.804-5.698,14.313-5.47
				c5.328,0.22,9.913,2.308,13.583,6.21c3.77,4.008,5.697,8.803,5.47,14.313c-0.216,5.245-2.274,9.751-6.051,13.441
				C384.679,233.773,379.988,235.459,374.631,235.73z"/>
		</g>
	</g>
</g>
<g id="Layer_2">
	<g>
		<path fill="#FFB775" d="M0,164.191"/>
		<path fill="#FFB775" d="M0.003,109.691c-0.002-0.001-0.005-0.002-0.008-0.003L0,109.691v55.379
			c10.99-5.081,18.513-14.125,18.513-28.125C18.513,125.069,10.994,114.772,0.003,109.691z"/>
		<circle fill="#FFB775" cx="40.693" cy="290.07" r="20.986"/>
		<circle fill="#FFB775" cx="111.554" cy="410.362" r="5.25"/>
		<ellipse fill="#FFB775" cx="125.305" cy="320.076" rx="7.5" ry="7.535"/>
		<circle fill="#FFB775" cx="325.753" cy="246.077" r="7.789"/>
		<path fill="#FFB775" d="M347.036,215.57c0,15.517,12.579,28.097,28.097,28.097c15.519,0,28.097-12.58,28.097-28.097
			c0-15.518-12.578-28.097-28.097-28.097C359.615,187.473,347.036,200.052,347.036,215.57z M394.159,215.865
			c0,10.786-8.742,19.53-19.529,19.53s-19.53-8.744-19.53-19.53s8.743-19.531,19.53-19.531S394.159,205.079,394.159,215.865z"/>
		<ellipse fill="#FFB775" cx="254.054" cy="187.112" rx="20.917" ry="20.833"/>
		<ellipse fill="#FFB775" cx="257.721" cy="121.598" rx="10.75" ry="10.181"/>
		<circle fill="#FFB775" cx="91.554" cy="72.982" r="5.583"/>
		<circle fill="#FFB775" cx="48.359" cy="182.779" r="10.167"/>
		<path fill="#FFB775" d="M189.971,193.862c0-28.212-22.61-51.083-50.5-51.083c-27.891,0-50.5,22.871-50.5,51.083
			s22.61,51.083,50.5,51.083C167.361,244.945,189.971,222.074,189.971,193.862z M98.034,193.862
			c0-23.149,18.552-41.916,41.438-41.916c22.885,0,41.437,18.767,41.437,41.916s-18.552,41.916-41.437,41.916
			C116.586,235.778,98.034,217.011,98.034,193.862z"/>
		<path fill="#FFB775" d="M0,426.138h37.867c-7.046-4.368-15.177-7.291-23.926-8.325c5.311-8.15,8.369-17.718,8.369-27.951
			c0-17.288-8.738-32.663-22.31-42.53V426.138z"/>
		<path fill="#FFB775" d="M154.638,416.445c-12.5-29,14.5-43.25,14.5-43.25c27.001-11.011,41.25,14,41.25,14
			s-7.62-6.867-13.309-10.058c-5.691-3.192-27.977-6.406-36.441,13.808c-9.667,23.083,9.5,35.193,9.5,35.193h256v-77.985
			c-12.146-9.128-25.357-7.964-25.357-7.964l-0.019,0.011c-0.898-31.473-28.059-56.729-61.458-56.729
			c-12.776,0-24.458,2.148-34.291,8.474c-9.22-20.075-29.67-32.474-53.208-32.474c-2.18,0-4.329,0.129-6.447,0.362
			c-0.004-0.001-0.009-0.003-0.013-0.004c-7.542-1.866-23.958,2.866-23.958,2.866c-8.75-2.5-32.75-4.75-46,30.75
			s9.75,64.25,9.75,64.25c-32,3.75-43.5,21.25-46.75,38.25s7.75,30.193,7.75,30.193h16.476
			C158.171,421.842,154.638,416.445,154.638,416.445z M339.099,292.778c27.41,0,49.631,22.535,49.631,50.333
			c0,6.669-1.291,13.03-3.614,18.855c0.006-0.336,0.023-0.67,0.023-1.008c0-31.12-22.797-56.347-50.917-56.347
			c-8.852,0-17.174,2.503-24.425,6.899c-0.29-2.7-0.765-5.344-1.41-7.921C316.837,296.826,327.498,292.778,339.099,292.778z"/>
		<path fill="#FFB775" d="M426.138,69.899c-10.853,10.941-25.166,9.212-25.166,9.212c-35.333-4-31.834-34-31.834-34
			c8.166,23,23.667,24,23.667,24c17.64,3.354,28.794-6.436,33.333-11.642V0H171.688c5.022,7.126,23.116,3.945,23.116,3.945
			C173.934,9.417,166.479,3.232,164.117,0h-17.988c2.748,3.871,12.214,15.266,30.383,18.57c0,0-15.625,22.5,4.5,47.25
			c0,0,15.625,18.375,33.125,11.625c0,0,32.875,15.875,55.625-14.375c0,0,13.125,27.125,48.125,27.875c0,0,28.875,1.625,45.5-22.75
			c0,0,8,19.92,36.375,22.772c0,0,16.582,0.887,26.375-6.12V69.899z M314.138,78.112c0,0-21.333,0.5-35.167-23.5l4.833-6.333
			c0,0,10.333,24.667,39.833,20c0,0,26.167-6.667,30.667-31.333l7.333,5C361.638,41.945,353.472,82.112,314.138,78.112z"/>
		<path fill="#FFB775" d="M426.138,109.201c-3.027-0.972-6.262-1.506-9.625-1.506c-16.914,0-30.625,13.301-30.625,29.708
			c0,16.408,13.711,29.708,30.625,29.708c3.363,0,6.598-0.534,9.625-1.506V109.201z"/>
		<path fill="#FFB775" d="M0,62.945c0,0,18.888,2.75,29.388-10.75c0,0,16.5-19.125,0.75-40.5c0,0,31.375,24.875,0,53.5
			c0,0-10.53,9.71-30.138,4.172v15.902l3.638-3.324c18.25,5,33.75-6.5,33.75-6.5c43-41.25,0-75.445,0-75.445H0V62.945z"/>
	</g>
</g>
</svg>
